<?xml version="1.0" encoding="UTF-8"?>
<svg id="Layer_1" xmlns="http://www.w3.org/2000/svg" version="1.1" viewBox="0 0 122.82 122.16">
  <!-- Generator: Adobe Illustrator 30.2.0, SVG Export Plug-In . SVG Version: 2.1.1 Build 105)  -->
  <defs>
    <style>
      .st0 {
        fill: #231f20;
      }
    </style>
  </defs>
  <path class="st0" d="M104.64,87.35c-1.27-.8-2.53-1.65-3.8-2.5-1.1-.74-2.2-1.47-3.3-2.18.67-2.76,1.68-5.42,3-7.91.15-.28.14-.61-.02-.88-.16-.27-.45-.44-.76-.44-.14,0-.28,0-.42,0-3.98,0-7.82.99-11.24,2.31l-.44-.79c-.24-.43-.79-.59-1.22-.35-.43.24-.59.79-.35,1.22l.33.6c-2.34,1.01-4.45,2.15-6.22,3.16-1.5.86-2.99,1.76-4.47,2.65-.23.14-.46.28-.69.42l.06-5.63c0-.5-.39-.9-.89-.91h0c-.49,0-.89.4-.9.89l-.07,6.49c0,.08.02.14.04.21-3.46,2.05-7.02,4.03-10.78,5.39-5.64,2.03-11.15,2.28-15.66.81.04-.04.08-.06.11-.11l1.91-2.96c.27-.42.15-.97-.27-1.24-.42-.27-.98-.15-1.24.27l-1.91,2.96c-.1.16-.13.33-.13.5-.58-.26-1.14-.54-1.68-.86-2.96-1.77-5.04-4.55-5.58-7.4.83-.12,1.69-.15,2.5-.09,3.1.23,6.13,1.46,9.06,2.65.65.26,1.29.52,1.94.78,3.63,1.42,7.9,2.73,12.09,1.65,2.07-.54,3.79-1.63,4.85-3.08.58-.8.97-1.76,1.1-2.69.01-.04.02-.08.03-.13.22-1.64.46-4.16.36-6.71.1,0,.19,0,.29,0,5.58,0,13.54-.45,19.52-1.11,1.21-.13,2.14-1.16,2.16-2.39.17-13.55-.09-25.35-1.92-38.87-.15-1.11-1.06-2-2.18-2.1-9.34-.9-18.85-.61-28.31.82-.5-.95-1.22-1.96-2.4-2.5-1.7-.77-3.6-.21-4.87.17l-18.33,5.42c-1.59.46-3.35,1.09-4.17,2.72-.66,1.32-.41,2.8-.22,3.89.52,3.03,1.09,6.06,1.68,9.08-.1.09-.18.19-.23.32-.19.46.02.99.48,1.18.02,0,.03.01.05.02.7,3.49,1.44,6.95,2.23,10.37-5.76-1.1-10.74-3.45-14.5-6.9-.26-.24-.65-.3-.98-.16-.33.15-.54.48-.53.84.06,3.3,1.08,6.7,2.89,9.66-2.82,1.96-5.47,3.09-8.11,3.46-.33.05-.61.27-.72.58-.11.31-.05.66.17.91,4.71,5.27,11.97,8.65,20.52,9.6-1.48,2.5-2.65,5.29-3.27,7.83,0,0,0,0,0,0,0,.01,0,.03-.01.04,0,0,0,0,0,.01h0c-1.98,6.51.77,13.47,7.03,17.73.06.04.12.07.18.11l-1,1.57c-.27.42-.14.98.28,1.24.15.09.32.14.48.14.3,0,.59-.15.76-.42l1-1.58c4.63,2.7,9.92,4.06,15.83,4.06,3.41,0,7.02-.45,10.83-1.35,3.22-.76,6.36-2.12,9.45-3.76l-.18,4.6c-.02.5.37.92.86.94.01,0,.02,0,.04,0,.48,0,.88-.38.9-.86l.23-5.7c2.47-1.41,4.9-2.95,7.3-4.48,3.24-2.06,6.53-4.16,9.88-5.87l3.1,6.38c.16.32.48.51.81.51.13,0,.27-.03.39-.09.45-.22.63-.76.42-1.2l-3.11-6.39c3.14-1.47,6.32-2.55,9.56-2.9.38-.04.69-.32.78-.69.09-.37-.07-.76-.4-.96ZM90.19,66.48c-1.9.17-14.44,1.29-21.08,1.62-.17-.53-.34-1.04-.53-1.53,7.13-1.28,14.39-2.11,21.63-2.46,0,.78,0,1.58-.01,2.37ZM62.02,77.37c-1.09-.19-2.09-.63-3.07-1.12.17-.03.34-.06.51-.09,1.55-.27,3.14-.56,4.67-.34.72.11,1.4.34,1.97.68-1.1.82-2.69,1.12-4.08.87ZM89.6,70.55c-6.08.67-14.21,1.13-19.74,1.1-.07-.61-.17-1.19-.29-1.77,6.58-.34,18.22-1.38,20.59-1.59,0,.55,0,1.09-.01,1.64,0,.32-.24.59-.55.62ZM87.69,30.77c.29.03.53.26.57.55,1.46,10.82,1.91,20.55,1.94,30.98-7.5.36-15.03,1.22-22.41,2.57-.87-1.56-2.1-2.82-4.14-3.59-1.59-.59-3.23-.72-5-.69-1.15-9.3-1.59-18.76-1.3-28.12,0-.3.23-.56.53-.61,9.95-1.67,19.99-2.04,29.81-1.1ZM31.39,36.41c.5-.98,1.84-1.44,3.07-1.8l18.33-5.42c1.33-.39,2.61-.71,3.61-.25.45.21.85.59,1.22,1.15-.01,0-.03,0-.04,0-1.14.19-1.99,1.17-2.03,2.33-.13,4.16-.11,8.34.05,12.51-.12.04-.23.11-.33.2l-.48.48c-2.33,2.34-4.03,4.03-8.23,5.91-4.57-.12-9.19-1.08-13.44-2.75-.63-3.19-1.23-6.39-1.78-9.59-.19-1.09-.31-2.05.06-2.77ZM45.42,54.56c.4-.49.96-.79,1.59-.86.08,0,.16-.01.24-.01,1.2,0,2.23.91,2.35,2.12.06.63-.12,1.24-.52,1.73-.4.49-.96.79-1.59.86-1.31.12-2.46-.82-2.59-2.11-.06-.63.12-1.24.52-1.73ZM33.53,50.86c3.44,1.24,7.08,2.03,10.73,2.33-.81.85-1.28,2.02-1.15,3.28.11,1.11.65,2.1,1.51,2.81.75.61,1.67.94,2.62.94.14,0,.28,0,.42-.02,1.11-.11,2.1-.65,2.81-1.51.7-.86,1.03-1.94.92-3.05-.15-1.49-1.08-2.71-2.35-3.31,3.09-1.6,4.76-3.18,6.65-5.06.22,4.49.61,8.96,1.16,13.41-.04,0-.08,0-.11,0-.95.05-1.89.11-2.84.17-5.61.35-11.42.7-17.05.08-.39-.04-.77-.11-1.16-.17-.75-3.26-1.47-6.57-2.15-9.9ZM22.4,64.85c.39-.29.48-.83.21-1.23-1.5-2.23-2.5-4.77-2.88-7.33,4.51,3.48,10.31,5.69,16.92,6.41,5.79.64,11.67.27,17.36-.08.94-.06,1.89-.12,2.83-.17,2.3-.12,4.36-.17,6.18.5,2.78,1.05,3.64,3.26,4.56,6.27.59,1.96.69,4.43.61,6.59-.27-.27-.57-.51-.9-.72-.83-.54-1.83-.91-2.89-1.07-1.81-.26-3.64.06-5.25.34-.55.1-1.1.2-1.66.29-7.36,1.31-14.96,2.68-22.63,2.19l-.27-.02c-.15,0-.3-.02-.48-.04-8.06-.64-14.97-3.46-19.65-7.99,2.6-.65,5.21-1.95,7.94-3.96ZM82.24,97.05c-5.84,3.72-11.88,7.57-18.04,9.03-10.73,2.53-19.79,1.35-26.94-3.51-5.61-3.82-8.08-10-6.31-15.76.15-.48.33-.96.53-1.43.81-1.81,2.54-3.2,4.81-3.91.66,3.32,3.04,6.53,6.42,8.54,5.39,3.21,12.83,3.49,20.4.77,4.82-1.74,9.27-4.42,13.56-7.01,1.47-.89,2.95-1.78,4.44-2.63,4.23-2.42,10.49-5.58,17.17-5.89-1.16,2.42-2.04,4.99-2.63,7.63-.08.37.08.75.4.96,1.27.8,2.53,1.65,3.8,2.5.62.42,1.24.83,1.86,1.24-6.8,1.4-13.23,5.5-19.46,9.47Z"/>
  <path class="st0" d="M30.49,63.7c-.6-.25-1.36-.57-2.19-.5-.99.08-2.04.84-2.09,1.97-.03.78.42,1.37.74,1.79.09.11.17.22.25.34.32.5.36,1.16.09,1.66-.27.49-.84.79-1.37.75-.52-.05-1-.47-1.11-.96-.1-.49-.58-.79-1.07-.69-.49.1-.8.58-.69,1.07.27,1.25,1.4,2.25,2.7,2.38.1,0,.19.01.29.01,1.16,0,2.27-.66,2.84-1.7.58-1.08.52-2.45-.16-3.5-.1-.15-.22-.31-.33-.46-.17-.22-.38-.49-.37-.61,0-.06.19-.23.44-.25.4-.03.9.18,1.34.36.46.19.98-.02,1.18-.48.19-.46-.02-.99-.48-1.18Z"/>
  <path class="st0" d="M41.62,71.73c.55.42,1.25.64,2.1.64.1,0,.21,0,.31,0,.84-.05,1.53-.28,2.05-.68.92-.71,1.31-1.99.95-3.12-.36-1.15-1.35-1.92-2.63-2.08-1.39-.17-2.73.43-3.4,1.52-.75,1.21-.47,2.88.62,3.73ZM42.53,68.95c.3-.48.98-.77,1.65-.68.27.03.92.18,1.13.84.13.4-.02.9-.34,1.14-.23.18-.59.28-1.06.31-.37.02-.88,0-1.2-.25-.36-.28-.45-.93-.19-1.36Z"/>
  <path class="st0" d="M34.21,71.59c-.04.5.33.93.83.96.02,0,.05,0,.07,0,.47,0,.86-.36.9-.83.11-1.45.29-2.9.5-4.34l1.95.11s.03,0,.05,0c.47,0,.87-.37.9-.85.03-.5-.35-.92-.85-.95l-5.5-.3c-.51-.04-.92.35-.95.85-.03.5.35.92.85.95l1.74.1c-.21,1.42-.39,2.86-.5,4.3Z"/>
  <path class="st0" d="M49.8,72.06c.02.49.42.87.9.87.01,0,.02,0,.03,0,.5-.02.89-.43.87-.93l-.06-1.81c1.27.29,2.47.88,3.48,1.72.38.32.95.26,1.27-.12.32-.38.26-.95-.12-1.27-.68-.57-1.44-1.04-2.25-1.41.02-.02.05-.04.07-.07.75-.73,1.09-2.06.38-3-.43-.57-1.14-.88-2.1-.93-1.31-.07-1.93.44-2.24.87-.41.58-.39,1.25-.37,1.69l.15,4.4ZM51.5,67.01s.2-.12.55-.12c.04,0,.08,0,.13,0,.57.03.72.17.75.21.08.1.01.43-.2.64-.3.29-.79.46-1.25.61l-.03-.75c0-.15-.02-.51.04-.59Z"/>
  <path class="st0" d="M60.79,69.13l.07,2.09c.01.49.42.87.9.87,0,0,.02,0,.03,0,.5-.01.89-.43.87-.93l-.07-2.19s0-.03-.01-.04c.78-.88,1.4-1.92,1.78-3.03.16-.47-.09-.98-.56-1.14-.47-.16-.98.09-1.14.56-.26.76-.65,1.47-1.15,2.11-.74-.58-1.45-1.2-2.12-1.85-.36-.35-.93-.34-1.27.01-.35.36-.34.93.01,1.27.83.81,1.73,1.57,2.66,2.27Z"/>
  <path class="st0" d="M39.87,91.3c-.96.09-1.89.63-2.58,1.49-.6.76-.93,1.66-.94,2.54,0,1.03.44,2.01,1.2,2.61.52.41,1.16.62,1.79.62.42,0,.84-.09,1.21-.29.44-.23.61-.77.39-1.21s-.77-.62-1.21-.39c-.31.16-.75.1-1.06-.15-.33-.26-.53-.71-.52-1.19,0-.48.2-.99.55-1.43.38-.48.86-.78,1.34-.82.42-.03.88.18,1.03.5.21.45.74.65,1.19.45.45-.21.65-.74.45-1.19-.47-1.03-1.65-1.66-2.84-1.55Z"/>
  <path class="st0" d="M51.2,94.25c-.48-.15-.98.11-1.13.58l-.86,2.66-2.6-.26c.09-.16.18-.33.28-.48.27-.42.14-.98-.28-1.24-.42-.27-.97-.14-1.24.28-.85,1.34-1.46,2.88-1.75,4.44-.09.49.23.96.72,1.05.06.01.11.02.17.02.42,0,.8-.3.88-.73.1-.54.26-1.07.44-1.59l2.82.28-.43,1.33c-.15.47.11.98.58,1.13.09.03.19.04.28.04.38,0,.73-.24.86-.62l1.86-5.74c.15-.47-.11-.98-.58-1.13Z"/>
  <path class="st0" d="M56.93,94.97c-.3-.07-.62.02-.84.24-1.67,1.68-2.92,3.77-3.62,6.04-.15.48.12.98.6,1.12.48.15.98-.12,1.12-.6.04-.14.1-.28.15-.42.04,0,.08.02.12.02s.08,0,.12,0l2.45-.32c.05.36.12.72.15,1.08.04.47.44.81.89.81.03,0,.06,0,.09,0,.5-.05.86-.49.81-.98-.21-2.18-.68-4.34-1.39-6.41-.1-.29-.35-.51-.65-.58ZM55.16,99.48c.35-.64.74-1.26,1.19-1.84.15.54.26,1.09.38,1.63l-1.57.21Z"/>
  <path class="st0" d="M66.77,93.49c-.14-.32-.45-.54-.8-.55-.35.01-.67.18-.83.49-.53,1.03-1.03,2.09-1.49,3.17-.56-.55-1.17-1.06-1.8-1.52-.26-.19-.6-.22-.9-.09-.29.13-.5.41-.53.73-.17,1.76-.09,3.54.23,5.28.08.43.46.73.88.73.05,0,.11,0,.17-.02.49-.09.81-.56.72-1.05-.19-1-.28-2.01-.29-3.03.4.37.78.76,1.13,1.18.21.24.52.35.83.3.31-.05.57-.26.69-.56.34-.85.7-1.7,1.09-2.54l1.28,3.04c.19.46.72.67,1.18.48.46-.19.67-.72.48-1.18l-2.05-4.87Z"/>
  <path class="st0" d="M71.61,92.35c-.83.02-1.69.42-2.4,1.14-.24.24-.33.6-.22.93.52,1.54,1.15,3.07,1.85,4.55.15.32.48.51.81.51.13,0,.26-.03.39-.09.45-.21.64-.75.42-1.2-.14-.3-.29-.61-.42-.91.03-.02.07-.03.1-.05.42-.27.89-.57,1.28-1.02.51-.6.73-1.33.61-2.01-.19-1.06-1.25-1.87-2.42-1.83ZM72.05,95.03c-.18.21-.44.39-.71.57-.15-.39-.3-.78-.44-1.18.22-.14.48-.26.76-.27.32.02.57.17.61.36.03.14-.06.35-.21.52Z"/>
  <path class="st0" d="M75.42,90.6c-.2-.46-.73-.66-1.18-.47-.46.2-.67.73-.47,1.18l1.73,4c.15.34.48.54.83.54.12,0,.24-.02.36-.07.46-.2.67-.73.47-1.18l-1.73-4Z"/>
  <path class="st0" d="M80.58,86.15s-.01,0-.02,0c-.91,0-1.71.4-2.19,1.1-.28.41-.63.97-.81,1.64-.2.76-.14,1.52.19,2.14.47.9,1.52,1.47,2.63,1.47.14,0,.29,0,.43-.03,1.09-.15,2.05-.78,2.57-1.7.57-1.01.53-2.26-.09-3.19-.57-.86-1.65-1.42-2.73-1.42ZM81.83,89.88c-.24.42-.71.73-1.24.8-.52.07-1.05-.14-1.24-.49-.11-.21-.13-.52-.04-.84.11-.4.35-.79.55-1.08h0c.17-.26.47-.31.7-.31h0c.49,0,1,.26,1.24.62.24.36.25.89.01,1.3Z"/>
  <path class="st0" d="M90.76,81.98c-.13-.48-.62-.76-1.1-.63-.48.13-.76.62-.63,1.1l.74,2.76-3.91-1.04c-.33-.08-.68.02-.91.27s-.29.62-.16.93c.48,1.2.85,2.45,1.08,3.72.08.43.46.74.88.74.05,0,.11,0,.17-.02.49-.09.81-.56.72-1.05-.15-.81-.35-1.62-.6-2.42l3.77,1.01c.31.08.64,0,.87-.23.23-.23.32-.56.23-.87l-1.15-4.26Z"/>
  <path class="st0" d="M42.26,43.29c.27.03.54.05.82.05,1.42,0,2.86-.43,4.04-1.22,1.4-.94,2.46-2.42,2.91-4.05.13-.48-.15-.97-.63-1.11-.48-.13-.97.15-1.11.63-.33,1.22-1.13,2.33-2.18,3.04-1.05.71-2.37,1.03-3.63.88-.48-.07-.94.29-1,.79-.06.49.29.94.79,1Z"/>
  <path class="st0" d="M41.71,37.47c.13.37.47.6.85.6.07,0,.15,0,.22-.03.48-.12.78-.61.65-1.09,0-.03-.02-.06-.03-.09-.15-.44-.62-.69-1.07-.58-.48.12-.78.61-.65,1.09,0,.03.02.06.03.09Z"/>
  <path class="st0" d="M45.76,37.04c.07,0,.15,0,.22-.03.48-.12.78-.61.65-1.09,0-.02-.01-.05-.02-.07-.14-.45-.61-.71-1.07-.59-.48.12-.77.62-.65,1.1.1.41.47.68.87.68Z"/>
  <path class="st0" d="M46.71,56.57l.04.22c.08.43.46.73.88.73.06,0,.12,0,.18-.02.49-.1.8-.57.71-1.06l-.26-1.35c-.06-.29-.25-.53-.52-.65-.27-.12-.58-.1-.83.05l-.68.4c-.43.25-.57.8-.32,1.23.17.29.46.44.79.44Z"/>
  <path class="st0" d="M63.82,46.86c.59.38,1.25.56,1.83.72.16.05.33.09.49.14.69.21,1.11.47,1.29.8.06.11.08.28.03.42-.03.09-.06.13-.07.13-.48.13-.76.63-.62,1.11.11.4.47.66.87.66.08,0,.16-.01.24-.03.55-.15,1-.56,1.23-1.13.09-.21.13-.43.15-.65,1.05.78,2.43,1.35,3.71,1.51-.1.36-.29.76-.61,1.22-.12.18-.25.35-.38.53-.37.5-.75,1.03-1.03,1.64-.29.63-.44,1.5-.32,2.35-.16-.01-.32,0-.49-.02-.51-.04-.93.32-.98.82-.04.5.32.93.82.98.64.06,1.29.09,1.93.11.01,0,.02,0,.03,0,.01,0,.02,0,.04,0,.33,0,.65.02.98.02,2.66,0,5.32-.31,7.92-.94.48-.12.78-.6.66-1.09s-.6-.78-1.09-.66c-.22.05-.45.08-.67.13-.02-.97-.33-1.86-.75-2.45-.39-.55-.86-1-1.32-1.42-.16-.15-.31-.3-.47-.45-.42-.42-.7-.79-.86-1.14.92-.32,1.75-.8,2.45-1.46.02.06.03.13.05.2.23.56.67.98,1.22,1.14.08.03.17.04.25.04.39,0,.75-.25.86-.65.14-.48-.13-.98-.61-1.12-.01,0-.05-.05-.07-.13-.04-.14-.03-.31.04-.43.18-.33.61-.58,1.3-.79.16-.05.33-.09.49-.13.58-.15,1.24-.33,1.84-.7,1.48-.92,2.14-2.91,1.51-4.53-.61-1.56-2.33-2.54-3.97-2.34-.04-.88-.14-1.74-.3-2.55-.06-.33-.16-.83-.64-1.18-.37-.27-.87-.35-1.28-.4-.09-.01-.17-.02-.24-.04-.79-.16-2.14-.24-3.03-.29h-.15c-1.51-.1-3.14,0-4.83.3-1.55.27-3.02.64-4.35,1.1-.58.2-.97.75-.98,1.36,0,.76-.02,1.57,0,2.4-1.52-.04-3.04.9-3.62,2.33-.65,1.61-.01,3.61,1.45,4.55ZM77.59,54.22c.24.34.49,1.03.41,1.78-1.81.29-3.64.41-5.47.39-.2-.58-.1-1.3.08-1.69.21-.45.52-.88.84-1.33.14-.19.27-.38.4-.57.32-.47.72-1.14.91-1.91.33.73.84,1.3,1.25,1.71.17.16.34.32.51.48.41.38.79.74,1.08,1.15ZM84.07,42.27c.32.81-.04,1.89-.78,2.35-.37.23-.85.36-1.35.49-.18.05-.36.09-.54.15-.17.05-.32.11-.47.17.46-1.24.73-2.57.81-3.58.02-.26.03-.53.04-.79.04,0,.09.01.13,0,.86-.16,1.85.39,2.17,1.21ZM67.78,37.84c1.18-.39,2.47-.71,3.84-.95,1.55-.27,3.04-.37,4.42-.29h.15c.74.05,2.1.13,2.77.27.1.02.21.04.34.06.11.02.29.04.4.06,0,.04.01.08.02.13.27,1.38.35,2.96.22,4.59-.12,1.57-.7,3.45-1.4,4.58-1.04,1.67-2.66,2.52-4.83,2.52-.02,0-.05,0-.07,0-1.31,0-3.13-.83-3.96-1.78-.77-.89-1.33-2.34-1.67-4.32-.27-1.61-.26-3.33-.25-4.86ZM64.04,42.98c.31-.77,1.23-1.29,2.06-1.19.04.4.09.81.15,1.21.21,1.22.5,2.28.88,3.18-.15-.06-.29-.12-.46-.18-.18-.05-.36-.1-.54-.15-.5-.14-.98-.27-1.34-.5-.74-.47-1.08-1.55-.75-2.36Z"/>
  <path class="st0" d="M110.44,65.26c-4.08-1.38-8.29-2.52-12.51-3.38-.49-.1-.96.21-1.06.7-.1.49.21.96.7,1.06,4.15.84,8.28,1.96,12.29,3.32.1.03.19.05.29.05.38,0,.73-.24.85-.61.16-.47-.09-.98-.56-1.14Z"/>
  <path class="st0" d="M96.49,46.78c.02.49.42.87.9.87.01,0,.02,0,.04,0l10.11-.39c.5-.02.88-.44.87-.93-.02-.5-.41-.84-.93-.87l-10.11.39c-.5.02-.88.44-.87.93Z"/>
  <path class="st0" d="M95.36,36.16c.12,0,.24-.02.36-.08l5.43-2.39c.46-.2.66-.73.46-1.19-.2-.46-.73-.66-1.19-.46l-5.43,2.39c-.46.2-.66.73-.46,1.19.15.34.48.54.82.54Z"/>
  <path class="st0" d="M86.48,24.73c.28,0,.55-.13.72-.36l2.61-3.51c.3-.4.21-.96-.19-1.26-.4-.29-.96-.21-1.26.19l-2.61,3.51c-.3.4-.21.96.19,1.26.16.12.35.18.54.18Z"/>
  <path class="st0" d="M72.52,22.93s.04,0,.07,0c.47,0,.86-.36.9-.84l.6-8.41c.04-.5-.34-.93-.83-.96-.52-.04-.93.34-.96.83l-.6,8.41c-.04.5.34.93.83.96Z"/>
  <path class="st0" d="M57.28,23.73c.18.22.44.33.7.33.2,0,.4-.07.56-.2.39-.31.45-.88.13-1.27l-7.85-9.72c-.31-.39-.88-.45-1.27-.13s-.45.88-.13,1.27l7.85,9.72Z"/>
  <path class="st0" d="M29.86,25.24l6.6,3.32c.13.07.27.1.4.1.33,0,.65-.18.8-.5.22-.44.04-.99-.4-1.21l-6.6-3.32c-.45-.22-.99-.04-1.21.4-.22.44-.04.99.4,1.21Z"/>
  <path class="st0" d="M15.58,44.97l11.35,1.12s.06,0,.09,0c.46,0,.85-.35.89-.81.05-.49-.31-.93-.81-.98l-11.35-1.12c-.5-.05-.94.31-.98.81-.05.5.31.94.81.98Z"/>
  <path class="st0" d="M24.91,79.91l-7.18,4.83c-.41.28-.52.84-.24,1.25.17.26.46.4.75.4.17,0,.35-.05.5-.15l7.18-4.83c.41-.28.52-.84.24-1.25-.28-.41-.84-.52-1.25-.24Z"/>
</svg>