<?xml version="1.0" encoding="UTF-8"?>
<svg id="Layer_1" xmlns="http://www.w3.org/2000/svg" version="1.1" viewBox="0 0 122.82 122.16">
  <!-- Generator: Adobe Illustrator 30.2.0, SVG Export Plug-In . SVG Version: 2.1.1 Build 105)  -->
  <defs>
    <style>
      .st0 {
        fill: #231f20;
      }
    </style>
  </defs>
  <path class="st0" d="M109.63,71.88s-.04,0-.06.01c-.76-2.21-1.37-4.58-1.8-7.09,0,0,0,0,0-.01,0,0,0,0,0,0-.03-.13-.09-.25-.16-.36-.02-.03-.05-.05-.08-.08-.07-.07-.14-.13-.23-.18-.02-.01-.03-.03-.05-.04-1.02-.44-2.13-.81-3.27-1.13,0-.1-.02-.2-.06-.3l-2.45-6.17c-.13-.33-.45-.56-.81-.57-.34,0-.69.19-.84.52-.21.46-.49.88-.81,1.26l-3.98-8.31c-.14-.3-.43-.49-.76-.51-.32-.02-.64.14-.81.42l-3.12,4.98-8.68-19.57s-.01-.02-.01-.02v-13.95c0-.37-.23-.7-.56-.83-.1-.1-.21-.19-.35-.24-2.7-.9-5.51-.46-8.22-.04l-.7.11c-2.74.42-5.57.62-7.76-.72-.41-.25-.94-.14-1.21.26-.27.4-.18.94.21,1.23,1.7,1.27,3.59,2.18,5.53,2.68-1.97.34-4.01.13-5.85-.63-.41-.17-.9-.01-1.12.38-.23.39-.13.88.22,1.16,2.37,1.86,5.15,2.87,7.83,2.87.57,0,1.14-.05,1.69-.14,1.13-.19,2.26-.45,3.35-.7,1.77-.41,3.45-.78,5.15-.88v9.73c-1.91,3.02-3.76,6.09-5.55,9.2-.85-4.04-1.77-7.41-2.84-10.45-.76-2.14-2.95-3.44-5.21-3.1-5.69.88-16.48,2.98-21.94,4.66-2.07.64-3.45,2.61-3.35,4.79.09,1.95.27,4.32.49,6.89-.2.06-.39.13-.58.22-.38.18-.73.42-1.03.7-.51-.6-1.24-1.05-2.08-1.2-1.12-.22-2.36.04-3.7.74-1.92,1.01-3.49,2.59-4.5,4.51-.38-.12-.79-.16-1.22-.11-.91.09-1.76.55-2.29,1.25-.67.87-.89,1.99-.63,3.17.3,1.32,1.19,2.5,2.33,3.08.31.16.63.24.95.29l-.2,1.26c-3.71.24-7.58,1.06-10.79,2.39-.25.11-.45.32-.52.58l-1.74,6.08c-.05-.01-.1-.03-.16-.04-.48-.12-.97.18-1.09.66-.12.48.18.97.66,1.09,11.95,2.93,37.12,14.01,37.37,14.12,0,0,0,0,0,0,.11.05.23.08.35.08.08,0,.16-.01.23-.03,20.38-5.48,37.99-9.23,57.1-12.17.49-.08.83-.54.75-1.03s-.53-.82-1.03-.75ZM85.19,76.25c-.17-.65-.31-1.31-.43-1.97l22.28-4.47c.22.8.46,1.59.72,2.36-7.65,1.2-15.08,2.54-22.57,4.08ZM70.28,64.32s.04-.02.06-.03c.05-.02.09-.05.14-.08.06-.03.11-.07.16-.11.01-.01.03-.02.04-.03,1.74-1.86,3.49-4.7,4.46-6.36l1.19,1.91c.15.24.41.4.69.42.29.03.56-.09.75-.3l4.14-4.69c.72,1.52,2,4.26,3.14,6.94,0,.01,0,.02.02.03.45,1.05.88,2.1,1.25,3.05.13.33.43.55.78.58.36.02.68-.16.85-.47l1.63-3.04s.01-.03.02-.04l.68-1.28,2.36,4.46c.16.3.47.48.8.48.14,0,.29-.03.42-.11.44-.23.61-.78.37-1.22l-.78-1.48c3.8.36,7.21.96,10,1.76l-20.06,3.96c-5.84-2.21-11.34-3.91-17.07-2.88,1.24-.56,2.56-1.06,3.96-1.48ZM87.26,62.6s.02,0,.03,0v.03s-.02-.02-.03-.03ZM106.6,68.07l-22.12,4.44c-.1-.72-.17-1.44-.21-2.17l21.9-4.32c.13.69.28,1.38.43,2.05ZM59.16,70.69c8.07-5.35,15.07-3.54,23.28-.45.04.73.12,1.47.21,2.2-9.61-2.57-21.39-.95-28.32,8.01.44-3.48,2.14-7,4.83-9.76ZM82.96,74.4c.14.74.29,1.48.48,2.22-9.38,1.96-18.88,4.23-29.04,6.93,6.31-10.31,18.77-12.04,28.56-9.14ZM89.36,56.59c.13.3.43.51.76.53.32.03.65-.14.83-.42l3.15-5.03,3.81,7.95c.12.25.34.43.61.49.26.07.54,0,.76-.17.43-.33.82-.71,1.16-1.13l1.44,3.63c-3.27-.76-6.66-1.17-9.44-1.39l-1.37-2.58c-.16-.29-.46-.48-.79-.48h0c-.33,0-.64.18-.79.48l-1.25,2.34c-.58-.02-1.17-.03-1.75-.04-1.68-3.88-3.52-7.69-3.55-7.74-.13-.27-.39-.46-.69-.5-.3-.04-.6.07-.8.3l-4.24,4.8-1.35-2.17c-.17-.27-.5-.42-.79-.42-.32.01-.61.19-.76.47-.02.05-2.47,4.58-4.8,7.16-4.74,1.45-8.64,3.69-11.58,6.69-2.06,2.09-3.6,4.59-4.52,7.21-.6-2.87-1.98-5.67-4.04-7.99-1.36-1.53-3.03-2.87-4.9-3.99,0,0,0-.01,0-.02l.31-1.8c.89.37,1.87.56,2.84.48.12,0,.23-.04.34-.09.18.61.47,1.21.86,1.76.78,1.11,1.86,1.89,3.06,2.24l-.24,3.27c-.04.5.34.93.83.96.02,0,.04,0,.07,0,.47,0,.86-.36.9-.83l.24-3.22c1.25-.09,2.49-.6,3.5-1.52.7-.63,1.22-1.4,1.55-2.21,1.23.9,2.93,1.18,4.42.59,2.02-.8,3.34-3.03,3.12-5.3-.16-1.71-1.17-3.31-2.64-4.34l1.9-1.9,2.46,4.07c.17.28.46.43.8.43.33-.01.62-.2.77-.49,3.4-6.69,7.14-13.3,11.12-19.67l8.68,19.58ZM35.7,59.54c.08-.03.17-.05.25-.09.34.34.76.6,1.2.8l-.47,1.25c-.38-.09-.77-.17-1.16-.25l.19-1.65s0-.04,0-.07ZM38.93,60.64c.05,0,.1.01.16,0,.86-.05,1.68-.39,2.33-.92.42.8,1.01,1.49,1.72,2.06l-.33,1.9c-1.37-.68-2.84-1.25-4.38-1.71l.51-1.33ZM44.81,37.04c5.31-1.63,16.19-3.75,21.68-4.6,1.41-.22,2.77.59,3.25,1.92,1.22,3.46,2.23,7.36,3.19,12.25-1.45,2.59-2.87,5.19-4.23,7.82l-2.22-3.67c-.14-.24-.39-.39-.66-.43-.28-.03-.55.06-.75.26l-3.13,3.12s-.01.02-.02.03c-1.11-.31-2.33-.28-3.31.22-.64-1.46-2.1-2.6-3.78-2.76-.31-.03-.63-.03-.94,0-.78-1.53-2.33-2.66-4.06-2.83-1.27-.13-2.56.27-3.57,1.03-.04-.11-.09-.23-.14-.34-.47-.98-1.28-1.73-2.24-2.07-.21-.08-.44-.12-.67-.16-.23-2.54-.4-4.89-.49-6.81-.06-1.36.79-2.59,2.08-2.99ZM27.15,55.86c-.08-.37-.16-1.08.3-1.67.23-.3.63-.51,1.04-.55.2-.02.58-.02.86.24.22.19.52.26.8.2.28-.07.52-.26.63-.53.79-1.9,2.28-3.54,4.1-4.5.97-.51,1.82-.7,2.52-.56.63.12,1.32.65,1.33,1.3,0,.44.33.8.76.87.44.07.85-.18.99-.6.17-.51.59-.95,1.14-1.22s1.16-.32,1.66-.14c.51.18.95.59,1.21,1.15s.31,1.16.13,1.66c-.16.46.07.96.52,1.14s.97-.04,1.16-.49c.54-1.27,1.97-2.13,3.36-1.99.99.1,1.92.71,2.46,1.55-1.06.52-1.98,1.39-2.55,2.49-.43.83-.54,1.6-.35,2.29.15.53.53,1.02,1.01,1.29.44.25.92.31,1.38.18.07-.02.13-.04.19-.08,1.74-.96,2.77-2.96,2.61-4.92.08,0,.17,0,.25.01,1.35.13,2.54,1.4,2.5,2.65-.01.42.26.79.66.9.4.11.83-.07,1.03-.43.5-.89,1.98-.96,3.06-.47,1.41.64,2.44,2.02,2.57,3.44.14,1.46-.72,2.95-2,3.46-1.27.5-2.92-.11-3.46-1.29-.18-.39-.61-.6-1.02-.51-.42.09-.71.47-.7.89.02,1.03-.47,2.08-1.34,2.87-.64.58-1.39.94-2.15,1.05l.1-1.41c.04-.5-.34-.93-.83-.96-.49-.04-.93.34-.96.83l-.09,1.29c-.66-.28-1.26-.76-1.72-1.41-.68-.96-.93-2.08-.69-3.09.1-.42-.12-.86-.52-1.03-.12-.05-.24-.08-.36-.08-.29,0-.58.14-.75.4l-.92,1.38c-2.08-.06-4.07-1.69-4.48-3.74-.08-.38-.39-.67-.78-.72-.39-.06-.76.16-.92.52-.34.74-1.11,1.27-1.92,1.32-.81.06-1.64-.38-2.07-1.07-.14-.23-.39-.39-.66-.42-.28-.03-.55.06-.74.25-.33.32-.89.42-1.31.23-.41-.19-.68-.65-.68-1.17,0-.4-.27-.75-.65-.85-.38-.11-.79.04-1,.38-.63.99-2.18,2.11-3.31,1.54-.66-.34-1.21-1.07-1.39-1.88ZM52.61,53.5c-.04,1.07-.62,2.14-1.52,2.72-.05-.04-.12-.11-.15-.19-.07-.24,0-.58.22-.99.33-.64.85-1.18,1.45-1.54ZM30.53,59.44c.61-.22,1.2-.56,1.71-1,.3.45.7.81,1.19,1.03.15.07.3.11.46.15l-.16,1.37c-1.09-.12-2.24-.18-3.42-.17l.22-1.39ZM34.8,62.95c5.46.96,10.16,3.39,13.22,6.83,2.54,2.86,3.93,6.51,3.94,10-2.28-5.13-7.24-9.71-13.17-11.86-6.78-2.46-14.12-2.19-20.47-1.55l.45-1.58c4.85-1.9,11.37-2.66,16.03-1.84ZM17.8,68.17c.08.01.16.03.25.02,6.25-.64,13.53-.98,20.12,1.41,6.11,2.22,11.09,7.19,12.74,12.49-6.15-5.66-13.37-9.77-19.78-11.18-.49-.11-.97.2-1.07.69-.11.49.2.97.69,1.07,5.61,1.23,11.9,4.65,17.46,9.42-7.42-3.15-21.91-9.13-31.06-11.69l.64-2.24Z"/>
  <path class="st0" d="M29.38,29.33c.07-.09.22-.14.33-.11.11.03.21.15.22.26.04.42.36.75.78.8.04,0,.08,0,.12,0,.37,0,.71-.23.84-.58.09-.23.33-.41.64-.48.31-.07.61,0,.78.16.36.35.93.34,1.27-.02.35-.36.34-.93-.02-1.27-.61-.6-1.52-.83-2.43-.63-.36.08-.68.22-.97.41-.22-.18-.48-.32-.76-.4-.81-.22-1.74.09-2.25.77-.3.4-.22.96.18,1.26.4.3.96.21,1.26-.18Z"/>
  <path class="st0" d="M38.48,24.19c.17.25.45.4.75.4.04,0,.08,0,.12,0,.34-.05.63-.29.73-.62.1-.32.4-.6.72-.69.48-.13.76-.62.63-1.1-.13-.48-.63-.76-1.1-.63-.4.11-.77.31-1.08.57l-.25-.37c-.28-.41-.84-.52-1.25-.25-.41.28-.52.84-.25,1.25l.97,1.45Z"/>
  <path class="st0" d="M45.34,27.05c.12,0,.25.08.36.2.1.12.16.26.15.38-.04.42.22.81.63.94.09.03.18.04.27.04.32,0,.62-.17.78-.46.26-.46.91-.71,1.42-.54.47.16.98-.09,1.14-.56.16-.47-.09-.98-.56-1.14-.79-.27-1.67-.16-2.4.23-.02-.03-.04-.05-.06-.08-.42-.49-1.01-.79-1.62-.82-.5-.04-.92.35-.95.85-.03.5.35.92.85.95Z"/>
  <path class="st0" d="M48.89,18.58s.09.01.13.01c.44,0,.82-.32.89-.77.02-.1.14-.22.24-.23.12-.01.25.08.29.17.13.34.46.57.82.57,0,0,.01,0,.02,0,.36,0,.68-.21.82-.54.09-.22.34-.38.58-.39.19-.03.49.15.6.36.22.44.76.62,1.21.4.44-.22.62-.76.4-1.21-.42-.83-1.31-1.37-2.25-1.35-.5.01-.98.19-1.38.48-.38-.23-.84-.34-1.29-.29-.92.1-1.69.84-1.82,1.75-.07.49.26.95.76,1.02Z"/>
  <path class="st0" d="M27,36.34c.67.41,1.08,1.28.97,2.05-.07.49.27.94.76,1.01.04,0,.09,0,.13,0,.44,0,.82-.32.89-.77.1-.65.75-1.2,1.4-1.2.01,0,.03,0,.04,0,.49,0,.89-.39.9-.88,0-.5-.39-.91-.88-.92-.64-.02-1.35.22-1.9.61-.32-.59-.79-1.1-1.37-1.45-.42-.26-.98-.13-1.24.29-.26.42-.13.98.29,1.24Z"/>
  <path class="st0" d="M56.04,41.08c.5,0,.9-.43.9-.93s-.4-.9-.9-.9-.9.4-.9.9v.05c0,.5.4.88.9.88Z"/>
  <path class="st0" d="M60.2,40.57c.5,0,.9-.43.9-.93s-.4-.9-.9-.9-.9.4-.9.9v.05c0,.5.4.88.9.88Z"/>
  <path class="st0" d="M57.78,46.12c.65,0,1.29-.08,1.92-.25,2.15-.58,3.97-2.14,4.88-4.16.2-.45,0-.99-.45-1.19-.46-.21-.99,0-1.19.45-.68,1.52-2.1,2.73-3.71,3.16-1.61.43-3.44.1-4.79-.87-.4-.29-.97-.2-1.26.21-.29.4-.2.97.21,1.26,1.28.92,2.83,1.4,4.39,1.4Z"/>
  <path class="st0" d="M26.58,82.06c.16-.17.43-.25.66-.2.23.05.44.22.52.44.18.46.7.69,1.16.52.46-.18.7-.7.52-1.16-.3-.79-1.01-1.39-1.85-1.56-.84-.17-1.72.11-2.31.72-.56.59-.74,1.31-.9,1.95-.1.43-.2.84-.4,1.09-.24.32-.77.44-1.13.26-.36-.18-.58-.67-.47-1.06.13-.48-.15-.97-.63-1.11-.48-.13-.97.15-1.11.63-.33,1.21.29,2.59,1.41,3.14.37.19.78.28,1.18.28.83,0,1.65-.37,2.17-1.05.43-.56.58-1.2.72-1.76.12-.48.22-.9.45-1.13Z"/>
  <path class="st0" d="M31.6,88.62c.18.23.44.35.71.35.19,0,.38-.06.55-.19.39-.3.47-.87.16-1.26l-2.73-3.54c-.3-.39-.87-.47-1.26-.16-.39.3-.47.87-.16,1.26l.82,1.06-3.72,2.84c-.4.3-.47.87-.17,1.26.18.23.45.36.72.36.19,0,.38-.06.54-.18l3.73-2.84.81,1.05Z"/>
  <path class="st0" d="M36.67,93.72c.2-1.36-.36-2.45-1.49-2.91-1.34-.55-3.1-.02-4,1.21-.85,1.16-.78,2.79.17,3.71.5.49,1.2.75,1.95.75.33,0,.66-.05.99-.15,1.25-.38,2.2-1.43,2.37-2.61ZM34.89,93.46c-.07.5-.53.97-1.11,1.15-.46.14-.92.07-1.17-.17-.3-.29-.28-.94.03-1.36.34-.46.92-.69,1.41-.69.17,0,.33.03.46.08.14.06.5.21.39.98Z"/>
  <path class="st0" d="M39.92,93.82h0c-.21,0-.42.08-.58.21-1.6,1.35-3,2.93-4.15,4.68-.27.42-.16.97.26,1.25.42.27.97.16,1.25-.26.36-.55.75-1.08,1.16-1.59l1.75,4.18c.14.34.48.55.83.55.12,0,.23-.02.35-.07.46-.19.67-.72.48-1.18l-1.07-2.55c.2-.02.4-.06.59-.13,1.13-.4,1.85-1.65,1.65-2.83-.19-1.09-1.2-2.26-2.51-2.26ZM40.18,97.22c-.31.11-.74-.05-.9-.33-.04-.08-.1-.14-.16-.2.33-.34.68-.67,1.04-.98.22.13.45.41.5.69.06.32-.17.72-.48.83Z"/>
  <path class="st0" d="M48.04,98.99c-.86.66-1.95,1.45-2.19,1.56-.12.05-.26.04-.27.05-.04-.08-.03-.38-.03-.49l.08-2.21c.02-.5-.37-.91-.87-.93-.5,0-.91.37-.93.87l-.08,2.21c-.01.4-.04,1.07.38,1.63,0,0,0,0,0,0l-1.26,2.24c-.24.43-.09.98.34,1.23.14.08.29.12.44.12.31,0,.62-.17.79-.46l1.36-2.42c.26-.02.52-.07.74-.16.5-.21,1.98-1.32,2.59-1.79.39-.3.47-.87.17-1.26-.3-.39-.87-.47-1.26-.17Z"/>
  <path class="st0" d="M60.09,104.54c-.76.11-1.6.17-2.61.19-.04-.23-.05-.46-.07-.7.55-.17,1.11-.27,1.68-.27.5,0,.9-.41.9-.9,0-.5-.41-.9-.9-.9h0c-.6,0-1.19.1-1.77.24,0-.28,0-.56.01-.83l2.64-.39c.49-.07.83-.53.76-1.02-.07-.49-.53-.84-1.02-.76l-3.34.49c-.4.06-.71.38-.76.78-.22,1.74-.13,3.59.25,5.36.09.41.46.71.88.71h0c1.43,0,2.58-.08,3.6-.22.49-.07.83-.53.76-1.02-.07-.49-.52-.84-1.02-.76Z"/>
  <path class="st0" d="M65.41,102.33c.41-.77.89-1.51,1.46-2.15.33-.37.29-.94-.08-1.27-.37-.33-.94-.29-1.27.08-.46.52-.86,1.07-1.23,1.65-.23-.36-.48-.71-.71-1.08-.26-.42-.81-.56-1.24-.3-.42.26-.56.81-.3,1.24.41.66.84,1.31,1.28,1.96-.42.97-.74,1.99-.92,3.04-.08.49.24.96.73,1.04.05,0,.1.01.15.01.43,0,.81-.31.89-.75.09-.53.22-1.05.39-1.57.39.53.77,1.07,1.17,1.59.18.23.44.34.71.34.19,0,.39-.06.55-.19.39-.31.46-.87.15-1.26-.61-.77-1.19-1.57-1.76-2.38Z"/>
  <path class="st0" d="M71.75,98.06c-.92-.15-1.94.16-2.65.81-.25.22-.35.57-.27.89.46,1.77.87,3.57,1.22,5.35.08.43.46.73.88.73.06,0,.12,0,.18-.02.49-.1.8-.57.71-1.06-.11-.55-.22-1.11-.34-1.67.06-.01.12-.03.17-.06.48-.22,1.18-.59,1.66-1.25.55-.76.66-1.74.27-2.5-.33-.64-1.01-1.1-1.82-1.23ZM71.84,100.72c-.15.21-.4.4-.78.59-.11-.46-.22-.92-.33-1.38.24-.1.49-.14.73-.1.24.04.44.15.51.28.07.14.02.41-.12.6Z"/>
  <path class="st0" d="M78.07,101.24l-1.2.4-.8-3.8c-.1-.49-.58-.79-1.07-.7-.49.1-.8.58-.7,1.07l1.01,4.79c.05.25.21.47.43.6.14.08.29.12.45.12.1,0,.19-.02.29-.05l2.15-.72c.47-.16.73-.67.57-1.14-.16-.47-.67-.73-1.14-.57Z"/>
  <path class="st0" d="M81.75,94.82h-.02c-1.45,0-2.62.94-2.9,2.34-.24,1.19.3,2.48,1.31,3.15.5.33,1.09.51,1.69.51.21,0,.43-.02.64-.07,1.54-.34,2.6-1.93,2.31-3.49-.27-1.43-1.52-2.44-3.03-2.45ZM82.09,99c-.32.07-.67,0-.94-.18-.4-.27-.63-.83-.54-1.3h0c.16-.82.9-.89,1.13-.89h0c.54,0,1.14.31,1.27.98.11.58-.35,1.27-.92,1.39Z"/>
  <path class="st0" d="M90.54,94.31c-.41.11-.81.19-1.21.25.03-.14.05-.28.07-.41.08-.96-.36-1.85-1.13-2.29-.66-.37-1.51-.37-2.29,0-.49.23-.82.59-1.12.9-.08.08-.16.17-.25.25-.28.28-.36.7-.18,1.06.75,1.47,1.65,2.88,2.67,4.18.18.23.44.34.71.34.19,0,.39-.06.56-.19.39-.31.46-.87.15-1.26-.17-.22-.35-.45-.51-.68,1.01,0,1.99-.14,2.99-.41.48-.13.76-.62.64-1.1-.13-.48-.63-.76-1.1-.64ZM87.11,94.99s-.04.05-.05.07c-.25-.4-.49-.82-.72-1.23.15-.15.28-.27.42-.33.23-.11.49-.13.62-.06.14.08.24.33.22.56-.03.3-.19.63-.48.99Z"/>
  <path class="st0" d="M94.76,89.36c-.55.62-1.19,1.35-1.73,2.09-.24-.2-.47-.43-.71-.66l1.29-1.39c.34-.36.32-.93-.04-1.27-.36-.34-.93-.32-1.27.04l-1.25,1.34c-.09-.09-.18-.18-.26-.27l1.22-1.46c.32-.38.27-.95-.11-1.27-.38-.32-.95-.27-1.27.11l-1.75,2.09s-.04.08-.07.12c-.03.05-.07.1-.09.16-.02.05-.02.11-.03.16,0,.06-.02.12-.02.17,0,.06.02.11.03.17.01.06.02.11.05.17.03.05.07.1.1.15.03.04.05.09.08.12.31.3.62.62.95.96.9.92,1.84,1.88,2.83,2.59.15.11.34.17.52.17.06,0,.13,0,.19-.02.25-.05.46-.21.59-.43.5-.86,1.42-1.91,2.09-2.67.33-.37.29-.94-.08-1.27-.37-.33-.94-.29-1.27.08Z"/>
  <path class="st0" d="M100.08,83.36c-.46.14-.92.25-1.4.37,0-.04-.01-.08-.02-.13-.18-.83-.85-1.5-1.71-1.71-.7-.18-1.5-.04-2.18.37-.58.36-.94.95-1.22,1.42l-.09.14c-.26.42-.13.97.29,1.23,1.39.87,2.76,1.8,4.07,2.79.16.12.35.18.54.18.27,0,.54-.12.72-.36.3-.4.22-.96-.17-1.26-.3-.22-.6-.45-.9-.67.31-.08.63-.16.95-.24.55-.13,1.11-.27,1.65-.43.48-.14.74-.65.6-1.12-.14-.47-.65-.75-1.12-.6ZM96.82,84.22c-.2.07-.36.21-.46.38-.29-.2-.59-.39-.89-.58.08-.1.16-.18.23-.22.26-.16.56-.22.8-.16.19.05.36.2.39.35.02.1-.04.22-.08.23Z"/>
</svg>