<?xml version="1.0" encoding="UTF-8"?>
<svg id="Layer_1" xmlns="http://www.w3.org/2000/svg" version="1.1" viewBox="0 0 122.82 122.16">
  <!-- Generator: Adobe Illustrator 30.2.0, SVG Export Plug-In . SVG Version: 2.1.1 Build 105)  -->
  <defs>
    <style>
      .st0 {
        fill: #231f20;
      }
    </style>
  </defs>
  <path class="st0" d="M89.13,86.14c.35-2.49.43-4.96.25-7.34-.13-1.67-1.44-3.01-3.12-3.19-1.5-.16-3-.29-4.49-.42.4-.38.68-.88.79-1.45,1.13-5.4,1.78-11.29,1.84-16.64,1.79-.12,3.8-.29,5.55-1.29,1.86-1.06,3.38-3.33,2.69-5.64-.39-1.3-1.46-2.4-2.93-3.03-1.21-.52-2.52-.66-3.76-.76-.76-.06-1.53-.09-2.3-.13-.27-4.36-1.7-9.08-3.23-14.06-1.74-5.68-3.55-11.55-3.72-17.35-.01-.5-.22-1-.56-1.37-.79-.85-2.12-.72-3.4.33-10,8.21-18.45,18.79-25.12,31.45-.93-.16-1.85-.33-2.77-.54-1.49-.34-3.35-.76-4.93.13-.92.52-1.58,1.42-1.85,2.55-.34,1.41-.04,3.04.76,4.25,1.33,2,3.59,3.05,5.4,3.89.04.02.08.02.11.03-1.02,3.19-1.83,6.63-2.4,10.3-.03.02-.07.02-.1.05-.81.62-2.93,1.31-3.91,1.14-1.03-.18-2.8-1.53-3.06-2.33,0-.01-.01-.02-.02-.03-.01-.03-.01-.06-.03-.08-.32-.66-.89-1.19-1.58-1.5.08-.37.19-.82.1-1.32-.13-.75-.65-1.29-.99-1.65l-.92-.96s-.1-.12-.11-.09c0-.05.02-.17.04-.26l.03-.15c.19-1.04-.04-2.07-.23-2.9l-.79-3.48c-.11-.49-.22-.95-.2-1.38.02-.5-.37-.91-.87-.93-.45,0-.91.37-.93.87-.02.66.12,1.29.25,1.84l.79,3.48c.17.74.34,1.5.22,2.18l-.02.12c-.06.31-.15.72.02,1.18.12.35.36.6.51.76l.92.96c.2.21.48.51.52.72.03.15-.03.38-.08.62,0,.02-.01.05-.02.08-1.05.09-2.08.6-2.84,1.47-.67.76-1.13,1.78-1.34,2.94-.16.87-.15,1.67.03,2.38.23.91.74,1.68,1.44,2.17.54.38,1.2.57,1.86.57.32,0,.64-.05.95-.14.73,1.28,2.15,2.4,3.86,3.01-.87.26-1.62.83-2.04,1.62-1.5,2.8-1.64,6.3-.4,10.13.38,1.18,1.37,2.07,2.58,2.32,6.88,1.44,13.83,2,20.95,2,9.44,0,19.19-.98,29.54-2.16,1.58-.18,2.83-1.41,3.05-2.98ZM87.58,78.94c0,.1,0,.21.02.32-2.6-.17-5.24-.19-7.84-.04-.5.03-.88.45-.85.95s.47.87.95.85c2.59-.15,5.21-.13,7.81.05,0,.68-.01,1.37-.05,2.05-7.19.4-14.44,1.2-21.55,2.37-.19-.96-.31-1.98-.31-3.03,3.07-.39,6.19-.61,9.28-.65.5,0,.89-.42.89-.91,0-.49-.41-.89-.9-.89h-.01c-3.03.04-6.09.26-9.12.63.24-1.53.79-3.05,1.83-4.46,0,0,0,0,0,0,6.21.19,12.22.6,18.35,1.23.81.08,1.45.73,1.51,1.54ZM80.79,73.37c-.08.42-.42.73-.84.79-1.72.23-3.29.41-4.79.54-9.91-.6-20.01-.61-31.6-.05-.43-.15-.71-.56-.68-1.03.53-7.8,1.96-14.74,4.27-20.64.13-.33.43-.57.78-.62,6.48-.96,12.15-1.49,17.34-1.61,6.32-.15,11.75.54,16.59,2.13.42.14.7.51.71.95.21,6.01-.44,13.13-1.78,19.54ZM73.87,15.2c.47-.38.85-.5.94-.5.05.05.08.14.09.2.18,6.04,2.02,12.03,3.8,17.82,1.47,4.79,2.85,9.33,3.14,13.43-4.1-.14-8.23-.05-12.25.03-6.63.14-13.43.27-20.07-.65,6.51-12.19,14.7-22.4,24.36-30.34ZM40.32,50.65c-.53-.8-.73-1.91-.51-2.83.11-.45.36-1.05.98-1.4.98-.55,2.34-.24,3.69.06,8.26,1.87,16.84,1.68,25.14,1.51,5.32-.11,10.83-.23,16.18.2,1.13.09,2.23.21,3.2.62.96.41,1.68,1.12,1.91,1.89.4,1.34-.62,2.86-1.85,3.56-1.36.78-3.09.94-4.66,1.05,0-.51,0-1.02-.03-1.52-.03-1.18-.81-2.22-1.94-2.6-5.05-1.66-10.68-2.38-17.2-2.22-5.26.13-11.01.66-17.55,1.63-.99.13-1.84.8-2.21,1.74-.2.51-.38,1.03-.56,1.55-2.01-.94-3.63-1.78-4.59-3.22ZM29.8,70.3c-.34-.24-.6-.65-.73-1.13-.12-.46-.12-1,0-1.62.15-.84.47-1.56.92-2.08.46-.52,1.08-.84,1.68-.88.03.03.07.06.11.09-.06.02-.12.05-.17.07-.88.39-1.54,1.08-1.8,1.91-.17.54-.15,1.09.05,1.56.28.64.93,1.11,1.69,1.22.17.03.33.04.48.03-.09.32-.27.61-.53.8-.48.35-1.2.36-1.69.02ZM33.08,71.22c.71-.84.99-2.05.65-3.11-.15-.46-.64-.73-1.11-.59-.36.11-.58.16-.79.13-.18-.03-.3-.12-.32-.17-.02-.05-.02-.16.02-.29.1-.33.41-.63.81-.81.34-.15.79-.33,1.18-.43.85,1.33,2.79,2.62,4.11,2.86.19.04.41.05.63.05,1.03,0,2.32-.34,3.37-.8-.23,1.76-.41,3.57-.53,5.42,0,.05,0,.1,0,.14-1.27.54-2.5.55-4.42.06-1.6-.4-3.04-1.42-3.6-2.49ZM35.96,87.52c-.58-.12-1.06-.55-1.24-1.11-.75-2.34-1.32-5.75.28-8.72.25-.47.77-.78,1.35-.82,8.44-.54,16.03-.82,23.22-.82,2.05,0,4.06.03,6.05.07-2.09,3.56-2.22,8.13-.35,13.11-10.12.55-19.79.29-29.3-1.7ZM67.15,89.11c-.22-.56-.45-1.19-.66-1.87,6.91-1.13,13.96-1.91,20.96-2.31-.04.32-.06.64-.11.96-.11.76-.71,1.35-1.48,1.44-6.45.74-12.67,1.39-18.71,1.78Z"/>
  <path class="st0" d="M60.33,82.46c0-.47-.36-.87-.83-.91-5.91-.46-6.9-.68-9.03-3.06-.18-.2-.43-.29-.71-.3-.27.01-.52.14-.68.36-1.76,2.34-4.29,2.71-8.12,3.27h-.04c-.46.07-.8.49-.77.96.03.47.42.83.89.84,3.86.05,6.03,1.22,8.1,2.97.17.14.37.21.58.21.16,0,.32-.04.46-.13.43-.26.83-.53,1.23-.81,1.7-1.17,3.3-2.27,8.06-2.51.47-.02.85-.41.85-.89Z"/>
  <path class="st0" d="M61.19,61.79c-2.03.48-4.12.69-6.22.62-.52-.03-.9.36-.93.85-.09,1.54-.06,2.86.36,4.28.11.36.23.69.38,1,.39.88.93,1.53,1.61,1.93.5.3,1.09.45,1.67.45.79,0,1.58-.27,2.17-.79.87-.75,1.22-1.84,1.46-2.8.17-.71.31-1.43.41-2.22.1-.75.16-1.54.2-2.42.01-.28-.11-.55-.33-.73-.22-.18-.51-.24-.78-.18ZM59.05,68.78c-.46.4-1.21.47-1.74.15-.25-.15-.47-.39-.67-.71.47-.68,1.08-1.25,1.79-1.65.53-.29,1.11-.48,1.71-.59-.06.31-.12.62-.2.92-.18.72-.41,1.45-.89,1.87Z"/>
  <path class="st0" d="M55.22,60.08v.06c.04.47.43.8.89.8.03,0,.05,0,.08,0,.5-.04.86-.5.82-1-.04-.5-.49-.88-.97-.82-.5.04-.86.48-.82.97Z"/>
  <path class="st0" d="M61.16,60.55s.05,0,.08,0c.5-.04.86-.5.82-1-.04-.5-.47-.86-.97-.82-.5.04-.86.48-.82.97v.06c.04.47.43.8.89.8Z"/>
  <path class="st0" d="M54.55,55.34c.13.06.26.09.39.09.33,0,.65-.19.81-.51.15-.31.44-.56.77-.66.33-.1.71-.07,1.01.1.43.24.98.09,1.22-.35.24-.43.09-.98-.35-1.22-.74-.41-1.62-.5-2.42-.25-.8.25-1.47.83-1.84,1.59-.22.45-.03.99.41,1.2Z"/>
  <path class="st0" d="M63.59,53.05c-.74-.35-1.63-.34-2.36.01-.45.21-.64.75-.42,1.2.21.45.75.63,1.2.42.25-.12.57-.12.82,0,.25.12.46.36.52.63.1.41.47.68.87.68.07,0,.15,0,.22-.03.48-.12.77-.61.65-1.09-.2-.79-.77-1.47-1.51-1.82Z"/>
  <path class="st0" d="M63.73,43.65c.37,0,.71-.23.84-.58.86-2.28,2.18-3.51,4.05-3.74.45-.06.78-.43.79-.88,0-.45-.32-.83-.77-.9-1.72-.26-2.88-1.72-2.82-3.57.01-.45-.3-.83-.74-.91-.44-.08-.87.17-1.01.59-.73,2.12-2.18,3.35-4.43,3.77-.43.08-.75.46-.74.9,0,.44.33.81.77.87,1.87.27,3.05,1.62,3.16,3.6.02.43.34.78.76.84.05,0,.09.01.14.01Z"/>
  <path class="st0" d="M25.68,55.19c.13.37.48.6.85.6.1,0,.2-.02.3-.05.47-.17.71-.68.55-1.15-.47-1.33-1.56-2.45-3.06-3.16-.9-.42-1.86-.67-2.81-.83.57-1.86.42-3.92-.4-5.69,2.33-.97,4.33-2.71,5.61-4.89.68.47,1.47.92,2.38,1.35.92.44,1.92.69,2.92.73-.13,1.96.58,3.97,1.91,5.41-1.36,1.35-2.13,3.26-2.04,5.2.02.5.47.87.94.86.5-.02.88-.44.86-.94-.07-1.68.76-3.39,2.13-4.36.23-.17.37-.43.38-.72,0-.29-.12-.56-.35-.73-1.61-1.24-2.38-3.47-1.89-5.44.07-.29,0-.59-.2-.81-.19-.22-.49-.34-.78-.3-1.04.12-2.14-.07-3.1-.53-1.19-.57-2.16-1.17-2.87-1.78-.21-.18-.5-.26-.78-.2-.28.06-.51.25-.62.5-1.15,2.51-3.41,4.49-6.05,5.28-.27.08-.49.29-.59.56-.1.27-.06.57.1.8,1.15,1.73,1.31,4.14.39,6-.13.26-.12.57.01.82.14.26.39.43.68.47,1.34.17,2.43.38,3.41.84,1.05.5,1.83,1.27,2.13,2.14Z"/>
  <path class="st0" d="M27.64,48.99h0c.5,0,.9-.41.89-.91,0-.11.01-.22.02-.33l.53.03s.03,0,.05,0c.48,0,.87-.37.9-.85.03-.5-.36-.92-.85-.95l-.42-.02c.02-.12.03-.24.06-.35.11-.48-.19-.97-.68-1.08-.48-.1-.97.19-1.08.68-.05.22-.07.44-.11.66l-.57-.03c-.48-.04-.92.35-.95.85-.03.5.35.92.85.95l.48.03c0,.15-.02.29-.02.44,0,.5.41.89.9.89Z"/>
  <path class="st0" d="M101.84,71.33l1.68-1.14c.41-.28.52-.84.24-1.25-.28-.41-.84-.52-1.25-.24l-1.46.99c0-.57-.02-1.15-.05-1.72-.03-.5-.45-.88-.94-.85-.5.03-.88.45-.85.94.03.6.05,1.2.05,1.8-.65-.34-1.3-.67-1.97-.98-.46-.21-.99-.01-1.2.44-.21.45-.01.99.44,1.2.64.3,1.28.62,1.9.95l-2.02,1.38c-.41.28-.52.84-.24,1.25.17.26.46.39.75.39.17,0,.35-.05.5-.16l1.74-1.18c-.04.64-.1,1.28-.17,1.92-.06.49.3.94.79,1,.03,0,.07,0,.1,0,.45,0,.84-.34.89-.8.09-.78.15-1.57.19-2.36.47.29.93.58,1.39.89.15.1.33.15.5.15.29,0,.58-.14.75-.4.28-.41.17-.97-.25-1.25-.5-.33-1.01-.66-1.52-.97Z"/>
  <path class="st0" d="M90.48,35.34h1.33s-.08,1.91-.08,1.91c-.02.5.37.92.86.94.01,0,.03,0,.04,0,.48,0,.88-.38.9-.86l.08-1.99h1.31c.5,0,.9-.41.9-.91,0-.5-.4-.9-.9-.9h-1.23s.07-1.66.07-1.66c.02-.5-.37-.92-.86-.94-.5,0-.92.37-.94.86l-.07,1.74h-1.41c-.5,0-.9.41-.9.91,0,.5.4.9.9.9Z"/>
  <path class="st0" d="M43.89,23.65c.13.36.48.59.84.59.1,0,.21-.02.31-.06l1.54-.57-.21,2.49c-.04.5.32.93.82.97.03,0,.05,0,.08,0,.46,0,.86-.35.9-.82l.21-2.38,1.14.6c.13.07.28.1.42.1.32,0,.64-.17.8-.48.23-.44.06-.98-.38-1.22l-.75-.4.79-.3c.47-.17.7-.69.53-1.16-.17-.47-.69-.7-1.16-.53l-1.14.43.16-1.87c.04-.5-.32-.93-.82-.97-.49-.05-.93.32-.97.82l-.18,2.11-1.51-.8c-.44-.23-.98-.06-1.22.38-.23.44-.06.98.38,1.22l.75.4-.79.3c-.47.17-.7.69-.53,1.16Z"/>
  <path class="st0" d="M38.83,80.34s.08,0,.11,0l.28-.04c.49-.06.84-.51.78-1-.06-.49-.52-.85-1-.78l-.28.04c-.49.06-.84.51-.78,1,.06.46.44.79.89.79Z"/>
  <path class="st0" d="M60.67,77.99h-.13c-.5,0-.9.4-.9.9s.4.9.9.9h.13c.5,0,.9-.4.9-.9s-.4-.9-.9-.9Z"/>
  <path class="st0" d="M60.67,86.48h-.13c-.5,0-.9.4-.9.9s.4.9.9.9h.13c.5,0,.9-.4.9-.9s-.4-.9-.9-.9Z"/>
  <path class="st0" d="M39.15,85.16h-.28s-.01,0-.02,0c-.49,0-.89.39-.9.88-.01.5.38.91.88.92h.28s.01,0,.02,0c.49,0,.89-.39.9-.88.01-.5-.38-.91-.88-.92Z"/>
  <path class="st0" d="M30.9,87.11c.37-.33.41-.9.08-1.27-1.11-1.25-2.1-1.34-2.74-1.2-.96.22-1.71,1.17-1.8,2.31-.05.65.08,1.27.2,1.81l.09.41c.12.62.1,1.05-.06,1.33-.18.32-.66.5-1.07.41-.44-.1-.87-.47-1.09-.96-.21-.49-.26-1.11-.12-1.76.1-.49-.21-.96-.69-1.07-.49-.11-.96.21-1.07.69-.22,1.03-.14,2.02.23,2.86.45,1.03,1.33,1.78,2.35,2,.2.04.39.06.59.06.99,0,1.94-.51,2.42-1.33.51-.89.39-1.89.26-2.57-.03-.15-.06-.3-.1-.45-.1-.46-.19-.89-.16-1.28.03-.34.21-.66.41-.71.22-.06.6.19.99.63.33.37.9.41,1.27.08Z"/>
  <path class="st0" d="M35.42,93.8c.12.05.24.08.37.08.34,0,.67-.2.82-.53.2-.45,0-.99-.46-1.19-1.16-.52-2.23-1.28-3.09-2.2-.34-.36-.91-.38-1.27-.04-.36.34-.38.91-.04,1.27.28.3.58.58.89.85-.72,1.32-1.56,2.58-2.53,3.73-.32.38-.27.95.11,1.27.17.14.37.21.58.21.26,0,.51-.11.69-.32.99-1.18,1.86-2.47,2.61-3.83.42.26.86.5,1.31.71Z"/>
  <path class="st0" d="M37.44,96.46c-1.03.04-1.9.62-2.38,1.62-.64,1.31-.1,3,1.17,3.71.41.23.87.33,1.33.33.96,0,1.92-.47,2.44-1.31.59-.94.63-1.99.12-2.87-.53-.92-1.62-1.56-2.68-1.48ZM38.47,99.86c-.27.42-.93.59-1.37.35-.44-.24-.64-.89-.42-1.34h0c.19-.39.47-.59.82-.61.01,0,.02,0,.03,0,.4,0,.82.24,1.02.58.17.3.15.65-.09,1.02Z"/>
  <path class="st0" d="M46.2,99.05c-1.19-.43-2.17-.4-2.93.12-.69.46-1,1.19-1.23,1.91-.34,1.07-.6,2.18-.78,3.29-.08.49.26.95.75,1.03.5.08.95-.26,1.03-.75.06-.38.13-.76.21-1.14.71.69,1.3,1.49,1.75,2.37.16.31.48.49.8.49.14,0,.28-.03.41-.1.44-.23.62-.77.4-1.21-.29-.57-.63-1.11-1.01-1.62.6-.08,1.09-.27,1.49-.57.74-.55,1.08-1.47.83-2.28-.32-1.04-1.38-1.43-1.73-1.55ZM46.02,101.44c-.19.14-.49.23-.92.25-.17.01-.34.02-.51.02-.29,0-.58.01-.87.05l.04-.14c.13-.41.28-.81.52-.96.1-.07.25-.11.43-.11.24,0,.54.06.88.19.56.21.62.38.62.39.01.04-.04.2-.18.31Z"/>
  <path class="st0" d="M53.7,101.6l-2.05,2.04c-.36-.61-.66-1.26-.91-1.92-.17-.46-.69-.7-1.16-.53-.46.17-.7.69-.53,1.16.4,1.06.93,2.07,1.56,3.01l-.11,2.16c-.03.5.36.92.85.95.02,0,.03,0,.05,0,.48,0,.87-.37.9-.85l.12-2.2,2.55-2.53c.35-.35.36-.92,0-1.27-.35-.35-.92-.36-1.27,0Z"/>
  <path class="st0" d="M68.78,101.89s-.01,0-.02,0c-.5,0-.89.42-.88.92.02,1.3-.13,2.59-.45,3.85-1.02-.67-1.91-1.53-2.62-2.53-.19-.27-.51-.42-.83-.38-.33.03-.61.24-.73.55-.17.4-.32.81-.46,1.22l-.87-2.09c-.19-.46-.72-.68-1.18-.49-.46.19-.68.72-.49,1.18l1.89,4.58c.14.34.47.56.83.56.03,0,.06,0,.1,0,.4-.04.72-.34.79-.74.12-.7.3-1.39.51-2.07.91.97,1.99,1.78,3.18,2.38.23.12.5.13.75.03.24-.1.43-.3.51-.54.6-1.78.89-3.64.86-5.52,0-.49-.41-.88-.9-.88Z"/>
  <path class="st0" d="M72.68,100.99c-.12-.48-.6-.78-1.08-.67-.48.12-.78.6-.67,1.08l1.16,4.85c.1.41.47.69.87.69.07,0,.14,0,.21-.03.48-.12.78-.6.67-1.08l-1.16-4.85Z"/>
  <path class="st0" d="M80.59,103.09c-.71.26-1.43.48-2.17.66l1.39-4.63c.1-.34,0-.71-.27-.94-.27-.23-.65-.29-.97-.13l-3.85,1.82c-.45.21-.64.75-.43,1.2.21.45.75.64,1.2.43l2.02-.95-1.24,4.12c-.09.3-.02.62.18.85.17.2.42.31.68.31.05,0,.1,0,.14-.01,1.34-.22,2.67-.56,3.94-1.03.47-.17.71-.69.53-1.16-.17-.47-.69-.7-1.16-.53Z"/>
  <path class="st0" d="M83.63,95.09c-.25-.14-.55-.15-.81-.03-.26.12-.45.36-.5.64-.48,2.37-.34,4.83.39,7.13.12.38.48.63.86.63.09,0,.18-.01.27-.04.47-.15.73-.66.58-1.13-.11-.34-.2-.68-.27-1.03.04-.02.09-.03.13-.06l2.09-1.41c.29.38.56.77.81,1.18.25.43.8.57,1.23.32.43-.25.57-.8.32-1.23-1.22-2.08-2.99-3.79-5.09-4.96ZM83.87,99.3c-.04-.64-.05-1.28.01-1.92.45.32.86.68,1.26,1.06l-1.27.86Z"/>
  <path class="st0" d="M94.17,94.18c-.65.05-1.29.14-1.93.27.04-.18.07-.35.08-.53.05-.73-.24-1.48-.77-2-.46-.46-1.05-.7-1.65-.66-.72.05-1.3.46-1.67.74-.42.3-1.7,1.23-1.42,2.59.12.59.5,1,.76,1.27.91.97,1.86,1.95,2.83,2.92.18.17.41.26.63.26s.46-.09.64-.27c.35-.35.35-.92,0-1.27-.28-.28-.55-.55-.83-.83,1.12-.36,2.29-.59,3.46-.68.5-.04.86-.47.83-.97-.04-.5-.48-.86-.97-.83ZM89.57,95.25s-.03.03-.05.04c-.21-.22-.42-.45-.63-.67-.09-.1-.29-.31-.31-.4,0,0-.04-.23.71-.77.22-.16.53-.38.73-.4,0,0,0,0,.01,0,.1,0,.2.08.25.13.16.16.26.41.24.62-.04.63-.62,1.18-.96,1.45Z"/>
  <path class="st0" d="M96.92,86.12c-.79-.37-1.77-.34-2.69.07-.59.27-1.05.78-1.45,1.23-.14.16-.28.32-.42.45-.18.17-.28.41-.28.66,0,.25.11.49.3.66l4.01,3.63c.17.16.39.23.6.23.2,0,.4-.07.57-.2.96-.78,1.53-2.41,1.3-3.7-.27-1.52-.94-2.56-1.94-3.03ZM96.86,90.82l-2.6-2.36c.24-.27.51-.54.71-.64.43-.2.88-.23,1.19-.08.59.28.83,1.19.93,1.71.07.4-.03.93-.22,1.36Z"/>
</svg>