<?xml version="1.0" encoding="UTF-8"?>
<svg id="Layer_1" xmlns="http://www.w3.org/2000/svg" version="1.1" viewBox="0 0 122.82 122.16">
  <!-- Generator: Adobe Illustrator 30.2.0, SVG Export Plug-In . SVG Version: 2.1.1 Build 105)  -->
  <defs>
    <style>
      .st0 {
        fill: #231f20;
      }
    </style>
  </defs>
  <path class="st0" d="M55.06,44.75s.07,0,.11,0c1.33-.16,2.58-.67,3.67-1.41.56.46,1.25.72,1.93.72.13,0,.27,0,.4-.03.99-.15,1.82-.86,2.06-1.78.18-.66.06-1.4-.34-2.09-.22-.38-.5-.7-.77-.99.03-.09.08-.18.11-.27.15-.47-.11-.98-.58-1.13-.47-.15-.98.11-1.13.58-.77,2.41-3.06,4.3-5.57,4.61-.49.06-.84.51-.78,1,.06.46.44.79.89.79ZM61.33,41.05c.15.26.21.54.16.73-.06.23-.31.43-.59.47-.2.03-.41-.02-.62-.11.36-.37.68-.78.96-1.21.03.04.07.08.09.12Z"/>
  <path class="st0" d="M57.72,36.5c.15.33.48.53.82.53.12,0,.25-.03.37-.08.45-.2.66-.74.45-1.19l-.04-.09c-.19-.46-.72-.66-1.17-.47-.46.19-.67.73-.48,1.19,0,0,.04.1.05.11Z"/>
  <path class="st0" d="M54.83,37.64c.14.35.48.56.83.56.11,0,.23-.02.34-.07.46-.19.68-.71.49-1.17l-.06-.14c-.2-.45-.73-.66-1.19-.45-.45.2-.66.74-.45,1.19l.04.09Z"/>
  <path class="st0" d="M88.84,48.41c-.77-1.56-2.14-2.84-3.9-3.68,2.59-3.82,5.04-7.65,7.26-11.13.38-.59.81-1.27.96-2.07.21-1.07-.14-2.13-.91-2.71-1.4-1.03-3.18-.05-3.77.28l-.72.39c-1.48.8-4.09,2.23-7.4,4.2-.06-.86-.19-1.93-.42-2.84-.58-2.19-2.56-3.72-4.82-3.72h-.03c-5.74.03-18.13,1.24-24.56,2.22-2.37.36-4.15,2.34-4.24,4.71-.21,5.99.43,10.63,1.17,16,.14,1.04.29,2.11.44,3.23l.43,3.19c-.54.19-1.05.45-1.45.77-1.45,1.13-2.19,3.1-1.85,4.91.08.42.25.86.48,1.27-.44.63-.87,1.26-1.26,1.86-.72,1.12-.68,2.58.11,3.62.07.09.14.18.21.27-2.63,1.69-6,2.26-9.01,1.47-.29-.08-.6,0-.82.2-.22.2-.34.5-.3.79.71,5.32-.95,10.89-4.44,14.97-1.21.08-2.31,1.07-2.44,2.24-.11.98.3,2,1.11,2.79.69.67,1.55,1.07,2.28,1.07.08,0,.16,0,.24-.02,1.19-.16,2.1-1.12,2.29-2.29,3.76-3.61,9.13-5.48,14.83-5.12.3.01.59-.11.77-.35.18-.24.23-.55.14-.84-1.07-3.13-.85-6.94.5-9.66.31.26.61.53.93.78.59.46,1.29.7,1.99.7.52,0,1.04-.13,1.51-.4.05-.03.09-.06.14-.08-.01,5.39.89,10.85,2.67,15.93-.15.25-.29.5-.42.75-.19.36-.39.71-.62,1.07-.17.26-.19.59-.05.87s.4.47.71.51c.6.07,1.22.11,1.84.11,3.47,0,7.25-1.06,10.06-2.87.34-.22.49-.63.38-1.01-2.3-7.75-3.34-13.68-3.39-19.09,1.35-.2,2.68-.4,4-.59.02,4.83,2.2,8.28,4.1,10.38,2.1,2.31,4.87,3.81,8.24,4.45.16.23.36.52.63.89.27.38.65.89.73,1.06.15.31.46.5.81.5h.01c.35,0,.66-.21.8-.52,1.48-3.18,2.45-7.32,2.59-11.08,0-.25-.08-.49-.25-.66-.17-.17-.4-.27-.64-.27-.03,0-.06,0-.09,0-1.79,0-3.89-.83-5.15-2.04-1.11-1.07-1.81-2.56-1.95-4.09.73-.1,1.46-.2,2.17-.3,1.33-.18,2.51-.87,3.32-1.94.81-1.07,1.15-2.4.95-3.72-.31-2.15-.67-4.42-1.06-6.74,1.49-.44,2.85-1.13,3.79-2.41,1.25-1.68,1.41-4.18.4-6.21ZM48.09,34.12c.05-1.51,1.19-2.76,2.71-2.99,5.67-.86,18.37-2.17,24.3-2.2h.02c1.44,0,2.7.98,3.08,2.38.3,1.15.39,2.67.42,3.44-10.42,6.38-19.03,13.02-25.64,19.78-.66-.6-1.66-.82-2.5-.49-.22.09-.42.22-.61.37l-.18-1.36c-.15-1.12-.3-2.2-.44-3.24-.76-5.51-1.36-9.86-1.15-15.69ZM51.26,56.32c-.16-.05-.32-.09-.48-.11.02-.21.16-.43.35-.5.19-.07.43-.02.59.11-.16.17-.31.33-.46.5ZM47.98,58.67c.54-.42,1.4-.71,2.14-.71.36,0,.68.07.94.22.68.4.86,1.68.55,2.5h0c-.4,1.08-1.38,1.83-2.14,2.26-.58.33-1.01.47-1.37.43-.67-.08-1.18-.86-1.31-1.55-.22-1.16.26-2.42,1.19-3.15ZM30.94,90.91c-.15,0-.61-.15-1.06-.61-.23-.23-.6-.7-.54-1.26.03-.3.46-.65.8-.65h0c1.05,0,1.54,1.35,1.56,1.51.04.55-.37.95-.77,1.01ZM47.14,83.44c-.08,0-.16,0-.23,0-5.01,0-9.73,1.6-13.38,4.51l6.05-6.54c.44.24.93.38,1.44.38h0c.81,0,1.57-.32,2.15-.89.57-.58.89-1.34.89-2.15s-.32-1.57-.89-2.15c-.57-.57-1.33-.89-2.15-.89h0c-1.68,0-3.04,1.37-3.03,3.05,0,.48.13.95.34,1.36l-6.28,6.78c3.09-4.04,4.66-9.19,4.3-14.26,3.23.49,6.65-.27,9.37-2.07.79.91,1.66,1.8,2.6,2.65-1.57,2.85-2.02,6.73-1.17,10.22ZM53.26,73.95c-.47.26-1.06.21-1.51-.15-.59-.46-1.16-.94-1.71-1.43-1.28-1.13-2.44-2.32-3.45-3.54,0,0,0,0,0-.01,0,0-.01,0-.02-.01,0,0,0,0,0,0-.26-.32-.52-.65-.77-.98-.34-.45-.35-1.08-.03-1.57.31-.48.65-.99,1-1.49.34.2.71.34,1.13.39.11.01.23.02.34.02.86,0,1.62-.38,2.14-.67,1.45-.84,2.47-1.95,2.93-3.2.45-1.22.31-2.87-.53-3.95,6.76-7.29,15.91-14.46,27.22-21.34,3.9-2.36,6.97-4.03,8.63-4.93l.73-.4c.89-.49,1.52-.63,1.82-.41.2.15.29.54.21.93-.08.47-.39.94-.72,1.46-2.81,4.42-6,9.42-9.39,14.23,0,0,0,0,0,0,0,0,0,0,0,0-.54.78-1.1,1.55-1.66,2.31-.94,0-1.86-.05-2.5-.24l-.1-.03c-.43-.13-.94-.28-1.48-.25-.84.03-1.57.5-1.86,1.18-.2.47-.19,1.02.03,1.54-.8.14-1.62.46-2.17,1.19-.53.7-.77,1.67-.65,2.64.13,1.07.65,2.03,1.44,2.64.09.07.18.11.27.17-4.52,5.12-9.46,9.52-14.71,13.06-.03.02-.06.03-.09.05-1.49,1.01-3.01,1.95-4.52,2.8ZM66.92,90.64c-2.53,1.47-5.78,2.28-8.76,2.24.17-.31.34-.62.54-.93.15-.23.18-.52.08-.78-1.92-5.33-2.84-11.13-2.69-16.79.85-.52,1.69-1.05,2.53-1.61,1.69-.27,3.37-.53,5.04-.78.08,5.35,1.09,11.18,3.27,18.66ZM79.97,75.12c1.39,1.33,3.52,2.28,5.54,2.49-.2,2.71-.83,5.56-1.75,8.01-.25-.35-.54-.75-.61-.89-.13-.26-.37-.44-.66-.49-3.2-.54-5.69-1.83-7.61-3.96-1.71-1.89-3.66-5.04-3.6-9.43,2.14-.31,4.21-.6,6.21-.88.2,1.93,1.09,3.8,2.49,5.14ZM83.93,64.03c.12.85-.09,1.69-.61,2.38-.52.69-1.27,1.13-2.12,1.24-5.77.79-12.43,1.72-19.3,2.78,4.47-3.36,8.7-7.33,12.6-11.84.07,0,.14.01.22.01.66,0,1.3-.1,1.86-.19l5.18-.79c.38-.06.76-.12,1.13-.19.38,2.27.73,4.49,1.04,6.59ZM87,53.55c-1.13,1.52-3.34,1.96-5.51,2.29l-5.19.79c-.99.15-2.22.34-2.89-.18-.4-.31-.69-.85-.76-1.43-.06-.52.05-1.01.3-1.34.43-.56,1.56-.58,2.39-.6.38,0,.71-.24.83-.6s.02-.75-.27-.99c-.17-.14-.36-.45-.52-.71-.07-.11-.08-.21-.08-.21.02-.03.13-.09.28-.1.26-.02.56.08.89.18l.1.03c2.25.67,6.53.07,6.71.05.49-.07.83-.52.76-1.02-.06-.43-.42-.73-.84-.75l-.26-1.37c.31-.45.62-.9.93-1.35,1.51.65,2.71,1.72,3.33,2.97.72,1.45.62,3.19-.23,4.34Z"/>
  <path class="st0" d="M19.36,75.16c-1.29-4.4-1.23-9.22.15-13.59.15-.47-.11-.98-.58-1.13-.48-.15-.98.11-1.13.58-1.5,4.7-1.55,9.9-.17,14.64s4.25,9.08,8.04,12.23c.17.14.37.21.57.21.26,0,.52-.11.69-.33.32-.38.26-.95-.12-1.27-3.53-2.92-6.18-6.96-7.47-11.35Z"/>
  <path class="st0" d="M28.42,53.08c.63-4.63,2.1-7.48,4.39-8.45.36-.15.58-.52.54-.91-.03-.39-.31-.71-.69-.8-3.99-.92-5.57-4.44-6.19-7.24-.1-.45-.53-.75-.99-.7-.46.05-.8.45-.79.91.06,3.03-2.07,7.36-4.99,8.6-.35.15-.56.5-.55.87.02.38.27.7.63.82,3.18,1.01,5.89,3.78,6.9,7.04.12.38.47.63.86.63.03,0,.05,0,.08,0,.42-.03.76-.36.82-.78ZM27.17,49.98c-1.23-2.05-3.02-3.73-5.13-4.8,1.77-1.37,3.11-3.51,3.83-5.69,1.05,2.12,2.57,3.66,4.5,4.55-1.47,1.25-2.53,3.22-3.21,5.94Z"/>
  <path class="st0" d="M49.95,21.32c.18.2.43.31.68.31.21,0,.42-.07.59-.22l1.6-1.41.61,1.91c.12.38.48.62.86.62.09,0,.18-.01.28-.04.47-.15.73-.66.58-1.13l-.5-1.57,1.81.5c.08.02.16.03.24.03.39,0,.76-.26.87-.66.13-.48-.15-.97-.63-1.11l-1.88-.52,1.53-1.34c.37-.33.41-.9.08-1.27-.33-.37-.9-.41-1.27-.08l-1.69,1.49-.47-1.45c-.15-.47-.66-.73-1.13-.58-.47.15-.73.66-.58,1.13l.4,1.25-1.05-.29c-.48-.13-.97.15-1.11.63-.13.48.15.97.63,1.11l.97.27-1.32,1.16c-.37.33-.41.9-.08,1.27Z"/>
  <path class="st0" d="M54.86,99.88c-.44-.24-.98-.08-1.22.35-.46.84-1.04,1.61-1.73,2.28-.67-.71-1.19-1.57-1.5-2.49-.16-.47-.67-.72-1.14-.56-.47.16-.72.67-.56,1.14.44,1.31,1.21,2.48,2.21,3.43l.07,2.28c.01.49.41.87.9.87,0,0,.02,0,.03,0,.5-.01.89-.43.87-.93l-.06-2.05c1.01-.89,1.85-1.93,2.5-3.11.24-.44.08-.98-.35-1.22Z"/>
  <path class="st0" d="M58.51,100.98c-1.35.17-2.31,1.15-2.56,2.61h0c-.24,1.39.53,2.86,1.83,3.48.46.22.97.33,1.48.33.85,0,1.7-.3,2.36-.88,1.12-.97,1.46-2.19.93-3.37-.63-1.41-2.44-2.39-4.04-2.19ZM60.43,105.18c-.51.44-1.3.56-1.88.28-.57-.28-.94-.96-.84-1.56.12-.69.45-1.06,1.01-1.13.81-.1,1.87.45,2.17,1.14.07.15.28.62-.47,1.27Z"/>
  <path class="st0" d="M68.41,99.49c-.46.2-.67.72-.47,1.18.29.69.4,1.36.32,1.95-.09.62-.41,1.15-.86,1.43-.43.27-1,.28-1.37.03-.61-.43-.68-1.48-.62-2.29.03-.5-.34-.92-.84-.96-.51-.03-.92.34-.96.84-.15,2.3.67,3.38,1.39,3.88.49.34,1.07.51,1.67.51s1.17-.16,1.69-.49c.89-.56,1.52-1.56,1.68-2.69.14-.92-.01-1.93-.44-2.93-.2-.46-.72-.67-1.18-.47Z"/>
  <path class="st0" d="M76.71,98.08c-.29-.4-.85-.5-1.26-.21-.4.29-.5.85-.21,1.26.51.71.95,1.47,1.31,2.26-1.1-.35-2.23-.6-3.38-.76-.26-.04-.52.04-.72.22-.2.17-.31.43-.3.69l.05,3.03c0,.49.41.89.9.89,0,0,0,0,.01,0,.5,0,.89-.42.88-.91l-.03-1.96c1.29.25,2.55.64,3.77,1.15.32.14.69.07.95-.16.26-.23.36-.6.26-.93-.5-1.64-1.25-3.18-2.25-4.57Z"/>
  <path class="st0" d="M83.84,96.04c-.23.1-.42.18-.61.26-.2.08-.4.17-.64.27-.46.2-.66.73-.46,1.19.2.46.74.66,1.19.46.05-.02.09-.04.14-.06-.06.2-.17.38-.33.52-.39.35-1.05.45-1.56.23-.53-.23-.94-.78-1.05-1.39-.11-.61.07-1.31.48-1.85.18-.23.37-.34.45-.35.46.18.97-.05,1.15-.51.18-.46-.04-.99-.51-1.17-.85-.34-1.84.04-2.53.94-.72.95-1.02,2.13-.82,3.25.21,1.21,1.02,2.26,2.11,2.73.42.18.87.27,1.32.27.8,0,1.59-.28,2.17-.82.97-.89,1.25-2.42.66-3.56-.22-.42-.73-.6-1.16-.4Z"/>
  <path class="st0" d="M96.3,88.19c-1.44-.61-2.91-1.19-4.38-1.7-.95-.34-1.69-.24-2.19.29-.65.7-.37,1.66-.28,1.98.49,1.69,1.07,3.36,1.74,4.97.14.35.48.55.83.55.12,0,.23-.02.35-.07.46-.19.68-.72.49-1.18-.18-.44-.34-.89-.51-1.33.77-.7,1.48-1.47,2.07-2.34.39.16.79.31,1.18.48.46.19.99-.02,1.18-.47.19-.46-.02-.99-.47-1.18ZM91.69,89.84c-.17-.53-.35-1.06-.51-1.6-.01-.04-.02-.09-.03-.12.05.01.11.03.17.06.45.16.9.33,1.35.5-.3.41-.63.8-.98,1.16Z"/>
  <path class="st0" d="M94.76,79.09c-.48-.14-.98.14-1.11.62s.14.98.62,1.11c.91.26,1.93.62,2.55,1.32.47.53.7,1.44.29,1.96-.29.37-.9.54-1.54.45-.72-.11-1.43-.5-2.12-.87-.44-.24-.98-.08-1.22.36-.24.44-.08.98.36,1.22.79.43,1.68.92,2.71,1.07.21.03.41.05.61.05,1.06,0,2.02-.42,2.6-1.16,1.06-1.34.61-3.21-.36-4.28-.93-1.03-2.24-1.51-3.39-1.84Z"/>
  <path class="st0" d="M103.07,65.35c-1.87-.58-3.81-1-5.75-1.27-.49-.07-.95.28-1.02.77s.28.95.77,1.02c.26.04.51.1.77.14-.22.94-.39,1.88-.49,2.84l-.99-.27c-.47-.13-.97.15-1.11.63-.13.48.15.97.63,1.11l4.81,1.32c.08.02.16.03.24.03.39,0,.76-.26.87-.66.13-.48-.15-.97-.63-1.11l-2.08-.57c.1-1.01.28-2.02.52-3,.99.21,1.97.46,2.93.75.09.03.18.04.26.04.39,0,.74-.25.86-.64.15-.47-.12-.98-.6-1.12Z"/>
  <path class="st0" d="M102.07,75.9c-1.26-.51-2.58-.87-3.92-1.08.11-.44.21-.88.29-1.33.09-.49-.24-.96-.73-1.04-.49-.08-.96.24-1.04.73-.24,1.34-.63,2.65-1.18,3.89-.2.45,0,.99.46,1.19.12.05.24.08.36.08.35,0,.68-.2.82-.54.18-.4.34-.82.49-1.23,1.29.18,2.57.52,3.78,1.01.11.04.23.07.34.07.36,0,.69-.21.83-.56.19-.46-.04-.99-.5-1.17Z"/>
  <path class="st0" d="M101.93,57.16h-.02c-1.21,0-2.42.7-3.01,1.75-.56.98-.52,2.13.1,3.15.59.97,1.72,1.53,2.84,1.53.54,0,1.08-.13,1.56-.41,1.46-.85,2.03-2.89,1.21-4.38-.58-1.04-1.56-1.65-2.69-1.65ZM102.5,61.63c-.63.37-1.58.12-1.96-.5-.29-.47-.31-.92-.08-1.33.28-.5.88-.84,1.45-.84h0c.48,0,.86.25,1.12.72.35.64.09,1.58-.54,1.95Z"/>
  <path class="st0" d="M105.9,50.39c-.37-.33-.93-.31-1.27.06l-1.04,1.14c-.04-.16-.09-.33-.16-.49-.45-1.13-1.71-2.07-3.03-1.67-.71.22-1.29.79-1.68,1.65-.48,1.06-.6,2.26-.35,3.38.08.36.37.63.73.69l4.9.8s.1.01.15.01c.43,0,.82-.31.89-.75.08-.49-.25-.95-.74-1.03l-.56-.09,2.22-2.42c.33-.37.31-.94-.06-1.27ZM101.82,53.76s0,0,0,.01l-1.77-.29c-.03-.57.08-1.14.31-1.67.16-.36.37-.61.56-.67.26-.08.68.22.84.61.23.57.14,1.33.06,2Z"/>
</svg>