<?xml version="1.0" encoding="UTF-8"?>
<svg id="Layer_1" xmlns="http://www.w3.org/2000/svg" version="1.1" viewBox="0 0 122.82 122.16">
  <!-- Generator: Adobe Illustrator 30.2.0, SVG Export Plug-In . SVG Version: 2.1.1 Build 105)  -->
  <defs>
    <style>
      .st0 {
        fill: #231f20;
      }
    </style>
  </defs>
  <path class="st0" d="M62.68,59.28s.03,0,.05,0c.47,0,.87-.39.9-.87.03-.5-.35-.92-.85-.95-.48-.02-.92.35-.95.85,0,0,0,.05,0,.05-.03.5.35.89.85.92Z"/>
  <path class="st0" d="M70.69,61.16c.18-.26.35-.53.49-.81.23-.44.05-.98-.39-1.21-.45-.23-.98-.05-1.21.39-.76,1.48-2.24,2.62-3.87,2.96-1.63.35-3.44-.08-4.74-1.12-.39-.31-.96-.25-1.27.14-.31.39-.25.96.14,1.27,1.33,1.06,3.01,1.64,4.7,1.64.52,0,1.03-.05,1.54-.16.52-.11,1.03-.28,1.51-.5.33.45.73.94,1.32,1.26.36.19.74.28,1.12.28.61,0,1.2-.24,1.56-.7.55-.68.55-1.72,0-2.54-.26-.38-.59-.66-.92-.89ZM70.21,63.46s-.25.06-.44-.04c-.23-.12-.44-.36-.63-.61.12-.09.23-.19.34-.29.26.17.49.34.63.55.12.17.11.37.09.4Z"/>
  <path class="st0" d="M68.32,95.92h-.26c-.5,0-.9.4-.9.9s.4.9.9.9h.26c.5,0,.9-.4.9-.9s-.4-.9-.9-.9Z"/>
  <path class="st0" d="M82.6,97.73h.26c.5,0,.9-.4.9-.9s-.4-.9-.9-.9h-.26c-.5,0-.9.4-.9.9s.4.9.9.9Z"/>
  <path class="st0" d="M72.8,97.41c-.4-.3-.96-.22-1.26.18-.3.4-.22.96.18,1.26,1.09.82,2.45,1.23,3.8,1.23s2.74-.42,3.84-1.25c.4-.3.47-.87.17-1.26-.3-.4-.87-.47-1.26-.17-1.56,1.18-3.91,1.19-5.47.02Z"/>
  <path class="st0" d="M94.21,67.31l-.72-.7c-.47-.45-.93-.9-1.41-1.35.23-.31.51-.69.62-1.24.12-.57-.01-1.19-.34-1.65-.28-.41-.7-.67-1.16-.73-.61-.09-1.13.17-1.4.31-.3.15-.61.31-.92.47-.73.39-1.53.6-2.32.61-.67,0-1.36.03-2.06.05-1.01.03-2.04.05-3.03.05-.17-3.2-.49-6.41-1.18-9.57-.17-.77-.59-1.46-1.18-2,1.42-.22,2.73-.46,3.38-.64.44-.12.73-.55.66-1.01-.98-6.38-3.13-12.49-6.24-17.72.6-.55.94-1.42.83-2.28-.14-1.01-.84-1.95-1.87-2.52-.86-.47-1.8-.62-2.62-.74-.17-.02-.35-.04-.53-.06-.01,0-.02,0-.03-.01-.03,0-.07,0-.1,0-3.64-.43-7.6-.33-12.42.32-1.01.14-2,.29-2.95.69-1.17.49-2.06,1.3-2.51,2.27-.44.94-.35,2.15.16,3.09-4.09,5.23-7.06,11.34-8.62,17.72-.06.25-.01.51.13.72.14.21.37.35.62.38.59.08,1.27.19,2,.32.5.08,1.02.17,1.55.25-.74.64-1.24,1.49-1.37,2.45-.29,2.16-.57,5.09-.81,8.35-1.08,0-2.21-.02-3.32-.05-.7-.02-1.4-.04-2.06-.05-.79,0-1.6-.22-2.33-.61-.31-.17-.62-.32-.92-.47-.28-.14-.8-.4-1.4-.31-.46.07-.88.33-1.16.73-.33.47-.46,1.09-.34,1.65.11.55.39.93.62,1.24-.47.45-.94.9-1.41,1.35l-.72.7c-.21.2-.56.54-.66,1.07-.13.7.27,1.26.46,1.52.26.36.65.96,1.04,1.56.41.62.82,1.24,1.08,1.62.2.29.54.76,1.13.97.2.07.4.1.59.1.47,0,.89-.17,1.21-.3,2.37-.96,4.75-1.34,7.63-1.23-.16,3.67-.25,7.28-.25,10.31,0,.97.4,1.91,1.11,2.65-1.12.06-2.25.13-3.47.21-1.53.11-2.79,1.29-3.01,2.81-.75,5.29-.82,11.03-.2,16.16.17,1.41,1.21,2.55,2.58,2.83,2.07.42,8.4,1.54,16.67,1.54,2.19,0,4.52-.08,6.94-.27,5.93-.47,11.26-1.73,15.69-2.91,1.07-.29,1.91-1.07,2.25-2.1,1.84-5.62,1.97-10.84.4-15.51-.39-1.15-1.36-2-2.54-2.2-.95-.17-2.09-.33-3.24-.48.75-.76,1.15-1.73,1.14-2.73l-.16-10.3c2.88-.11,5.27.27,7.65,1.23.31.12.73.3,1.2.3.19,0,.39-.03.59-.1.58-.21.92-.69,1.13-.97.27-.38.67-1,1.08-1.62.39-.6.78-1.2,1.04-1.56.19-.27.59-.83.46-1.53-.1-.53-.45-.87-.66-1.07ZM70.68,32.75s.07.02.11.02h.28c-.82,5.92-2.23,11.78-4.21,17.43-.02.05-.01.1-.02.15-.62.02-1.24.04-1.87.06l.76-2.43c1.56-5.01,3.18-10.18,4.95-15.23ZM72.71,33.97l-.03,2.77c-.05,4.47-.11,9.08-.2,13.49-1.17.01-2.43.04-3.76.07,1.82-5.3,3.16-10.79,3.99-16.33ZM74.28,50.22s0,0,0,0c.09-4.4.15-9,.2-13.46v-.33c1.11,4.49,2.19,9.01,3.23,13.5-1.09.15-2.14.26-2.88.28-.18,0-.35,0-.54,0ZM81.23,49.35c-.5.1-1.11.21-1.76.32,0-.04,0-.08,0-.13-1.22-5.31-2.51-10.67-3.84-15.95,2.71,4.7,4.64,10.1,5.6,15.76ZM75.94,30.14c.05.36-.19.78-.46.83-.08.01-.14.06-.2.09-.08-.02-.15-.05-.24-.05l-4.23-.04h0c-.13,0-.25.03-.36.08-.26-.24-.41-.62-.39-1,.03-.45.27-.92.66-1.25.31-.27,1.18-.49,1.72-.44.19.02.38.04.56.07.69.09,1.41.21,2,.54.52.29.89.74.95,1.17ZM48.23,50.12c1.61-5.99,4.52-11.71,8.45-16.6.28-.35.26-.86-.05-1.19-.4-.42-.54-1.23-.31-1.73.26-.57.83-1.06,1.58-1.38.75-.31,1.57-.44,2.49-.57,3.18-.43,5.97-.61,8.53-.55-.4.55-.64,1.18-.68,1.83-.05.8.23,1.61.73,2.2-1.78,5.08-3.4,10.27-4.97,15.29l-.87,2.79c-.03.08-.02.17-.03.25-2.72.11-5.38.26-7.59.45,0,0,0,0,0,0-1.63.14-4.18-.29-6.23-.63-.36-.06-.72-.12-1.05-.17ZM39.49,72.19c-.17.07-.46.18-.51.17-.05-.03-.16-.16-.23-.26l2.04-1.07c.44-.23.61-.77.38-1.21-.23-.44-.78-.61-1.21-.38l-2.22,1.16s-.05-.08-.08-.12c-.01-.02-.02-.03-.03-.05.62-.49,1.45-1.12,1.89-1.39.42-.26.55-.82.29-1.24-.26-.42-.81-.55-1.24-.29-.5.31-1.33.94-1.94,1.42-.02-.02-.03-.05-.05-.07-.05-.07-.08-.12-.11-.17.03-.03.07-.07.09-.09l.73-.7c.48-.46.96-.93,1.45-1.39l.11-.1c.29-.27.98-.89.27-1.92-.07-.1-.14-.2-.21-.29-.18-.24-.28-.38-.31-.54-.02-.11.03-.24-.01-.24.03,0,.12.03.35.14.28.14.58.29.88.45.98.52,2.07.81,3.15.82.66,0,1.34.03,2.04.05,1.08.03,2.18.05,3.25.05-.13,1.91-.24,3.9-.34,5.9-3.15-.12-5.77.3-8.4,1.36ZM45.31,87.59c2.83-.19,5.23-.31,8.01-.44l1.99-.1c1.68-.01,3.32-.02,4.91-.02,1.11,2.75,1.68,5.67,1.72,8.76l-9.26-.04c-.06-.02-.12-.04-.19-.05-.09,0-.18.02-.27.05l-8.84-.04c.03-.94.07-1.89.14-2.82l13.66.35s.02,0,.02,0c.49,0,.89-.39.9-.88.01-.5-.38-.91-.88-.92l-13.55-.35c.08-.75.16-1.49.27-2.23.1-.69.67-1.22,1.35-1.27ZM43.77,104.55c-.04-.33-.07-.67-.1-1h1.83c.5,0,.9-.4.9-.9s-.4-.9-.9-.9h-1.98c-.1-1.39-.15-2.81-.15-4.24l8.15.04c-.07,1.45-.18,4.1-.16,5.09,0,.32.18.61.46.77.28.16.62.15.9-.01l1.82-1.07,1.02,1.13c.17.19.42.3.67.3.07,0,.15,0,.22-.03.32-.08.58-.34.65-.67.26-1.09.46-4.07.54-5.49l4.27.02c-.17,3.09-.85,6.34-2.06,9.72-7.41-.11-13.02-1.11-14.93-1.49-.61-.12-1.07-.64-1.15-1.28ZM84.81,88.91c1.44,4.3,1.31,9.14-.41,14.38-.14.44-.53.79-1,.92-4.35,1.15-9.58,2.39-15.37,2.85-2.19.17-4.29.25-6.29.26,2.53-7.4,2.66-14.22.4-20.29,4.96,0,9.5.02,13.87.07,0,0,0,0,0,0,0,0,.01,0,.02,0,1.52-.02,4.99.34,7.62.8.53.09.97.48,1.15,1ZM76.73,85.31c-4.17-.05-8.49-.08-13.17-.08-2.38,0-4.87,0-7.47.02-.06,0-.11-.03-.17-.03l-.64.03c-.96,0-1.94.01-2.94.02,0,0-.02,0-.03,0-.91,0-1.76-.33-2.34-.89-.29-.29-.65-.78-.65-1.45,0-8.54.74-21.58,1.6-27.92.14-1.06,1.18-1.92,2.51-2.07,5.12-.6,14.96-.91,20.79-.93.14,0,.29,0,.45,0,.32,0,.63,0,.92,0,1.42,0,2.67.83,2.9,1.92.71,3.28,1.03,6.65,1.18,10,0,.02-.02.05-.02.07,0,.06.02.11.03.16.09,2.11.13,4.21.16,6.29l.19,12.5c0,.67-.34,1.17-.63,1.46-.59.59-1.45.95-2.41.91-.08,0-.16,0-.24,0-.02,0-.03,0-.05,0ZM90.57,72.35c-.09,0-.37-.1-.54-.17-2.61-1.05-5.21-1.47-8.34-1.36v-.4c-.03-1.82-.07-3.65-.13-5.5.99,0,2-.02,2.99-.05.7-.02,1.38-.04,2.04-.05,1.08-.01,2.17-.3,3.15-.82.3-.16.59-.31.88-.45.19-.1.28-.13.28-.15.03.04.07.16.05.26-.03.16-.13.3-.31.54-.07.09-.14.19-.21.29-.71,1.04-.02,1.66.27,1.92l.11.1c.49.46.97.92,1.45,1.39l.73.7s.06.06.09.09c-.03.04-.07.1-.12.17-.01.02-.03.05-.05.07-.61-.48-1.44-1.11-1.94-1.42-.42-.26-.98-.13-1.24.29-.26.42-.13.98.29,1.24.43.27,1.26.9,1.89,1.39-.01.02-.02.03-.03.05-.03.04-.05.08-.08.12l-2.22-1.16c-.44-.23-.98-.06-1.21.38-.23.44-.06.98.38,1.21l2.04,1.07c-.07.1-.17.23-.21.26Z"/>
  <path class="st0" d="M29.92,58.82c1.65-.1,3.32-.13,5.02-.13.42,0,.78-.29.87-.69.47-1.97.26-4.09-.57-5.84-.14-.3-.44-.5-.78-.51-3.22-.12-7.95.01-11.76,2.62-2.2,1.5-4.17,4.24-5.29,6.3-.19.36-.12.8.17,1.08.17.17.4.25.62.25.16,0,.32-.04.46-.13,1.58-.94,3.43-1.66,5.52-2.16-.04,3.01-.04,6.73-.05,10.33,0,4.07-.02,8.28-.07,11.44,0,.42-.02,1.06.32,1.64.6,1.02,1.81,1.16,2.56,1.16.16,0,.31,0,.42-.01.72-.03,2.07-.09,2.86-1.08.61-.77.6-1.75.6-2.39-.07-6.12-.46-15.67-.89-21.87ZM28.8,81.95c-.26.32-.93.38-1.53.41-.96.04-1.26-.12-1.34-.26-.08-.14-.08-.46-.07-.7.05-3.18.06-7.39.07-11.47,0-3.76.02-7.62.06-10.69.16-.03.31-.07.48-.09.55-.08,1.11-.14,1.67-.2.42,6.17.81,15.66.88,21.74,0,.52,0,1-.21,1.25Z"/>
  <path class="st0" d="M103.4,59.23c1.55-1.92,2.29-4.32,2.09-6.84-.09-1.12-.36-1.99-.83-2.69-.9-1.32-2.61-1.98-4.25-1.67-1.47.28-2.81,1.35-3.49,2.79-.52,1.1-.64,2.3-.68,3.33-.04.78-.04,1.71.16,2.65.15.73.42,1.38.79,1.94-.78,1.05-1.26,2.49-.73,3.74.42.99,1.37,1.67,2.53,1.81.05,0,.09,0,.14,0-.04,3.5-.27,7.59-.45,10.62-.1,1.82-.19,3.26-.19,3.94-.07,1.01-.31,1.63-.55,2.23-.21.53-.43,1.08-.46,1.78-.02.4.23.76.61.89.36.12.89.17,1.36.17.27,0,.52-.01.7-.04.45-.06.78-.44.78-.89,0-.71-.16-1.34-.31-1.95-.16-.65-.33-1.32-.33-2.15h0c0-.63.08-2.06.19-3.87.18-3.04.41-7.14.45-10.68.96-.08,1.73-.32,2.26-.76.73-.6,1.06-1.64.86-2.71-.11-.59-.37-1.15-.65-1.64ZM100.75,49.8c.15-.03.31-.04.47-.04.78,0,1.54.36,1.96.96.29.43.46,1.02.52,1.81,0,.02,0,.04,0,.07-1.8-.23-3.63-.26-5.44-.12.07-.31.16-.61.29-.89.44-.93,1.28-1.61,2.2-1.79ZM102.04,62.19c-.44.36-1.5.48-2.84.31-.25-.03-.85-.16-1.09-.73-.25-.6.12-1.5.66-2.14.97-.11,1.96-.04,2.9.19.26.44.53.94.61,1.37.08.4-.02.81-.24.99ZM102.02,58.07c-1.06-.25-2.18-.33-3.26-.23-.27-.38-.48-.86-.59-1.41-.15-.72-.15-1.47-.12-2.13,1.86-.18,3.73-.15,5.58.1-.21,1.35-.75,2.6-1.61,3.67Z"/>
  <path class="st0" d="M59.1,33.7s.05,0,.08,0l7.05-.63c.5-.04.86-.48.82-.98s-.5-.85-.98-.82l-7.05.63c-.5.04-.86.48-.82.98.04.47.43.82.9.82Z"/>
  <path class="st0" d="M64.86,36.91c-.46-.2-.99,0-1.19.45l-2.32,5.13c-.2.45,0,.99.45,1.19.12.05.25.08.37.08.34,0,.67-.2.82-.53l2.32-5.13c.2-.45,0-.99-.45-1.19Z"/>
  <path class="st0" d="M61.55,37.58c-.45-.21-.99-.02-1.2.43l-1.06,2.23c-.21.45-.02.99.43,1.2.12.06.26.09.38.09.34,0,.66-.19.81-.51l1.06-2.23c.21-.45.02-.99-.43-1.2Z"/>
  <path class="st0" d="M28.21,35.59c.68,0,1.21-.34,1.65-.6l.12-.07c.46-.27.6-.24.61-.23.04.01.15.23.1.46-.08.38-.42.79-.71,1.16-.32.38-.26.95.12,1.27.17.14.37.21.57.21.26,0,.52-.11.7-.33.41-.5.92-1.11,1.08-1.94.2-.97-.24-2.18-1.31-2.53-.83-.27-1.6.1-2.1.4l-.13.08c-.27.16-.54.33-.73.33t0,0c-.1,0-.23-.09-.26-.19s.01-.25.1-.31c.4-.3.48-.86.18-1.26-.3-.4-.86-.48-1.26-.18-.71.53-1.01,1.49-.72,2.33.29.84,1.12,1.42,1.99,1.41Z"/>
  <path class="st0" d="M29.09,29.93c.23,0,.46-.09.63-.26l1.05-1.04,2.35,2.83c.18.21.43.33.69.33.2,0,.41-.07.58-.21.38-.32.43-.89.12-1.27l-2.45-2.94,1.04-1.03c.35-.35.36-.92.01-1.27-.35-.36-.92-.36-1.27-.01l-3.38,3.33c-.35.35-.36.92-.01,1.27.18.18.41.27.64.27Z"/>
  <path class="st0" d="M38.34,28.07c.21,0,.41-.02.62-.06,1.08-.21,2.02-.93,2.44-1.9.47-1.07.26-2.35-.52-3.17-.69-.72-1.65-1.01-2.61-.77-1.17.28-2.18,1.25-2.53,2.41-.29.98-.04,2.05.63,2.72.5.5,1.21.77,1.96.77ZM37.46,25.1c.16-.54.69-1.05,1.23-1.18.08-.02.17-.03.24-.03.24,0,.46.1.64.3.27.29.35.81.17,1.2-.18.42-.63.76-1.13.85-.39.07-.77,0-.98-.22-.21-.21-.28-.59-.18-.93Z"/>
  <path class="st0" d="M43.48,24.3c.15.34.48.55.83.55.12,0,.24-.02.35-.07.46-.2.67-.72.48-1.18l-.22-.52c1.28.06,2.57.1,3.83.1h0c.5,0,.9-.4.9-.9,0-.5-.4-.9-.9-.9-.65,0-1.31-.01-1.96-.03.03-.06.06-.12.08-.18.43-1.02.18-2.2-.6-2.87-.68-.58-1.68-.72-2.62-.37-.79.29-1.34.89-1.75,1.33-.24.26-.31.64-.17.96l1.74,4.07ZM44.29,19.61c.3-.11.64-.09.81.05.18.15.23.52.11.8-.14.34-.49.65-.96.86-.02.01-.04.02-.07.03l-.55-1.3c.22-.21.43-.37.66-.46Z"/>
  <path class="st0" d="M50.51,18.98c.51.29,1.04.43,1.55.43.09,0,.18-.03.27-.04l.7,1.93c.13.37.48.59.85.59.1,0,.21-.02.31-.05.47-.17.71-.68.54-1.15l-.77-2.12c.32-.34.58-.77.75-1.27.26-.8.25-1.6.25-2.32,0-.49-.41-.89-.9-.89h-.01c-.5,0-.89.41-.89.91,0,.6.01,1.22-.16,1.73-.14.43-.42.76-.73.84-.24.06-.56,0-.87-.17-.36-.2-.68-.52-1.04-.88-.35-.35-.92-.36-1.27,0-.35.35-.36.92,0,1.27.44.44.88.87,1.44,1.18Z"/>
  <path class="st0" d="M65.78,21.15c.42,0,.84-.07,1.21-.19,1.07-.34,1.8-1.08,1.95-1.99.18-1.07-.45-2.01-1.21-2.52.57-.66.82-1.65.31-2.47-.44-.71-1.33-1.06-2.32-.93-.3.04-.59.11-.88.19-.25.07-.48.13-.68.15-.45.05-.79.42-.81.87l-.1,3.29c0,.12-.02.25-.03.4-.06.7-.16,1.76.56,2.47.52.52,1.27.73,2,.73ZM65.12,15.03c.06-.02.12-.03.18-.05.21-.06.42-.12.64-.14.3-.04.53.04.56.1.02.04-.04.29-.24.43-.29.21-.74.28-1.16.33l.02-.67ZM65.01,18.11c.02-.18.03-.35.04-.5v-.08c.57.05,1.14.12,1.57.36.34.19.58.54.54.79-.04.21-.33.44-.72.57-.6.19-1.19.1-1.39-.1-.12-.12-.06-.79-.04-1.04Z"/>
  <path class="st0" d="M72.63,22.03c.46,0,.93-.12,1.36-.35.71-.39,1.27-1.06,1.63-1.95.29-.71.4-1.46.51-2.12.08-.49-.26-.95-.75-1.03-.49-.07-.95.26-1.03.75-.09.59-.19,1.2-.4,1.72-.2.49-.49.86-.83,1.05-.3.17-.69.17-.9.01-.26-.2-.39-.69-.32-1.27.04-.31.11-.62.18-.93.1-.44.21-.89.24-1.39.03-.5-.34-.92-.84-.96-.52-.02-.92.34-.96.84-.02.35-.11.71-.2,1.1-.09.37-.17.75-.22,1.13-.14,1.24.24,2.33,1.04,2.92.42.31.94.47,1.48.47Z"/>
  <path class="st0" d="M77.49,22.88c.11.05.23.07.35.07.35,0,.69-.21.83-.55l1.65-3.93c.19-.46-.02-.99-.48-1.18-.46-.19-.99.02-1.18.48l-1.65,3.93c-.19.46.02.99.48,1.18Z"/>
  <path class="st0" d="M80.25,23.43c.06.24.22.44.43.56l1.72.97c.14.08.29.12.44.12.31,0,.62-.17.79-.46.24-.43.09-.98-.34-1.23l-.91-.51,2.03-3.34c.26-.42.12-.98-.3-1.24-.42-.26-.98-.12-1.24.3l-2.51,4.14c-.13.21-.16.46-.1.69Z"/>
  <path class="st0" d="M87.82,27.23c.69,0,1.37-.15,1.87-.46,1.13-.7,1.76-2.11,1.52-3.42-.24-1.33-1.32-2.45-2.61-2.7-.35-.07-.72.08-.92.38-.93,1.4-1.78,2.88-2.5,4.4-.18.39-.07.85.27,1.11.61.45,1.5.69,2.37.69ZM88.77,22.65c.33.24.59.62.67,1.03.11.58-.19,1.25-.7,1.57-.32.2-.98.23-1.53.13.48-.93,1-1.84,1.56-2.72Z"/>
  <path class="st0" d="M90.13,29.71c.48.82,1.26,1.94,2.29,2.62.15.1.33.15.5.15.29,0,.58-.14.75-.4.28-.41.17-.97-.25-1.25-.48-.32-.99-.87-1.46-1.58.19-.28.39-.56.61-.82l.95,1.14c.18.21.43.32.69.32.21,0,.41-.07.58-.21.38-.32.43-.89.11-1.27l-1.06-1.26c.16-.13.32-.27.49-.39.79.52,1.45,1.16,1.81,1.78.25.43.8.57,1.23.32.43-.25.57-.8.32-1.23-.85-1.45-2.35-2.39-2.96-2.73-.29-.16-.65-.15-.93.03-1.51.98-2.78,2.31-3.69,3.86-.16.28-.16.63,0,.91Z"/>
  <path class="st0" d="M96.86,38.87c.49,0,.89-.39.9-.88.02-.72.11-1.44.26-2.14.57.23,1.21.28,1.8.09,1.17-.37,1.95-1.61,1.78-2.81-.17-1.16-1.3-2.41-2.61-2.36-.2,0-.38.08-.53.21l-4.26,3.51c-.38.32-.44.88-.12,1.27s.88.44,1.27.12l1.02-.84c-.24.95-.37,1.92-.4,2.91-.01.5.38.91.88.92,0,0,.02,0,.02,0ZM99.27,32.64c.24.13.5.46.54.75.05.33-.21.74-.54.84-.34.11-.8-.07-.99-.39-.05-.09-.12-.17-.2-.23l1.18-.98Z"/>
  <path class="st0" d="M66.86,59.28s.03,0,.05,0c.47,0,.87-.39.9-.87.03-.5-.35-.92-.85-.95-.48-.02-.92.35-.95.85,0,0,0,.05,0,.05-.03.5.35.89.85.92Z"/>
</svg>